<?xml version="1.0" standalone="no"?>
<!DOCTYPE svg PUBLIC "-//W3C//DTD SVG 20010904//EN"
 "http://www.w3.org/TR/2001/REC-SVG-20010904/DTD/svg10.dtd">
<svg version="1.0" xmlns="http://www.w3.org/2000/svg"
 width="1024.000000pt" height="1024.000000pt" viewBox="0 0 1024.000000 1024.000000"
 preserveAspectRatio="xMidYMid meet">

<g transform="translate(0.000000,1024.000000) scale(0.100000,-0.100000)"
fill="#000000" stroke="none">
<path d="M4875 9729 c-228 -14 -595 -75 -780 -130 -38 -11 -95 -27 -125 -35
-171 -46 -486 -172 -692 -275 -180 -91 -488 -274 -488 -291 0 -9 160 -124 169
-121 4 1 65 36 136 79 807 482 1731 671 2675 548 222 -28 551 -104 750 -172
488 -167 952 -425 1331 -738 42 -35 79 -60 83 -56 4 4 6 3 5 -3 -2 -5 30 -41
70 -80 432 -412 706 -797 935 -1313 402 -907 439 -1948 102 -2893 -119 -336
-236 -572 -421 -854 -508 -773 -1237 -1337 -2110 -1632 -246 -83 -605 -166
-820 -188 -102 -11 -101 -11 -57 -59 21 -23 51 -63 66 -89 16 -26 32 -47 38
-47 5 0 71 9 145 21 709 108 1434 429 2008 890 326 262 629 591 861 934 400
594 628 1225 706 1960 20 195 15 635 -10 845 -47 386 -125 699 -257 1035 -260
662 -644 1197 -1205 1675 -435 372 -1033 685 -1611 845 -477 132 -960 178
-1504 144z"/>
<path d="M1591 9609 c-29 -31 -26 -58 12 -111 33 -46 399 -490 637 -772 75
-89 212 -253 306 -366 94 -113 292 -352 442 -533 150 -180 272 -333 271 -340
0 -6 -10 -26 -22 -43 -102 -143 -133 -204 -170 -340 -45 -164 -92 -257 -257
-519 -92 -144 -233 -358 -241 -365 -18 -15 -202 -285 -234 -343 -33 -60 -38
-78 -38 -135 -1 -113 78 -368 137 -445 46 -60 114 -108 198 -140 40 -15 78
-31 85 -35 6 -4 46 -31 89 -60 106 -72 187 -96 307 -90 82 3 100 8 169 42 100
49 146 100 208 230 66 139 120 197 263 283 62 37 178 110 258 163 201 133 251
155 383 175 59 9 110 14 113 12 10 -11 -71 -165 -146 -277 -88 -131 -179 -252
-368 -490 -68 -85 -136 -171 -151 -190 -81 -102 -169 -266 -220 -411 -94 -266
-110 -578 -42 -844 87 -348 334 -647 677 -823 212 -108 463 -172 685 -173
l108 0 0 -108 c0 -122 3 -117 -102 -185 -80 -53 -190 -156 -233 -222 -102
-154 -119 -365 -43 -527 52 -109 115 -166 265 -239 l122 -59 3 -373 3 -372 39
-80 c64 -132 90 -157 141 -138 41 16 115 215 115 312 l0 67 48 18 c98 36 185
122 225 224 24 63 33 178 17 244 -28 120 -111 229 -232 304 -26 17 -50 36 -53
42 -2 7 -1 132 2 277 l6 264 141 52 c78 29 164 64 191 78 129 64 253 172 323
281 134 207 146 493 28 701 -38 68 -130 175 -194 225 -78 62 -256 148 -381
185 -58 17 -106 31 -107 33 -1 1 1 140 3 308 l6 305 155 13 c613 48 1189 269
1498 576 125 124 244 308 286 443 23 74 31 46 23 -85 -16 -297 -63 -508 -165
-743 -46 -106 -46 -106 100 11 237 191 419 458 519 765 59 180 76 296 76 509
0 197 -12 293 -56 460 -56 213 -143 395 -270 565 -38 51 -69 95 -69 100 0 4
24 3 53 -2 28 -6 106 -8 172 -5 100 4 136 10 215 36 94 32 174 74 218 114 l23
21 -70 18 c-225 55 -383 182 -593 478 -45 63 -125 176 -177 250 -181 255 -281
369 -436 495 -342 278 -737 440 -1232 505 -94 12 -404 16 -508 5 -107 -10
-240 -34 -350 -61 -92 -23 -317 -106 -374 -138 -24 -13 -29 -10 -118 70 -178
161 -393 278 -567 309 l-39 6 7 -68 c10 -108 46 -806 41 -811 -5 -5 -132 81
-250 169 -44 33 -123 91 -175 129 -52 38 -180 132 -285 209 -189 139 -542 397
-749 547 -59 43 -181 132 -270 197 -375 273 -385 279 -425 236z m472 -416
c126 -87 180 -127 250 -185 43 -36 47 -44 46 -81 0 -41 -20 -112 -31 -112 -5
0 -211 239 -326 379 -34 42 -60 76 -56 76 3 0 56 -35 117 -77z m447 -330 c27
-21 61 -48 77 -60 79 -61 89 -82 80 -167 -5 -47 -43 -146 -57 -146 -3 0 -55
57 -114 126 l-109 125 25 52 c14 29 28 64 32 80 3 15 9 27 12 27 3 0 28 -17
54 -37z m1425 -84 c250 -127 504 -411 586 -654 21 -61 24 -89 24 -218 l0 -149
36 42 c47 55 69 123 69 216 l0 73 37 7 c73 14 382 -4 534 -30 569 -99 956
-335 1234 -751 338 -504 390 -1226 125 -1722 -163 -304 -396 -533 -693 -680
-145 -72 -383 -143 -477 -143 l-30 0 0 313 0 313 40 39 c131 128 92 362 -75
447 -48 25 -162 35 -220 19 -64 -17 -136 -79 -169 -144 -55 -108 -38 -223 49
-324 l35 -41 0 -256 0 -256 -27 7 c-58 16 -284 7 -375 -15 -159 -39 -304 -121
-427 -243 -150 -149 -226 -309 -238 -504 -16 -272 104 -500 348 -661 138 -91
281 -142 577 -205 l152 -32 0 -214 c0 -192 -2 -214 -17 -220 -23 -9 -249 13
-343 33 -162 34 -363 119 -503 211 -94 63 -250 219 -311 313 -179 272 -233
595 -157 937 26 115 56 196 121 322 55 108 84 147 374 521 200 256 378 514
433 625 17 33 43 97 59 142 27 77 31 82 74 103 133 64 250 180 323 318 94 179
110 371 45 559 -12 34 -31 73 -42 88 l-21 26 -1 -153 c-4 -362 -110 -566 -373
-715 -155 -88 -260 -112 -536 -123 -227 -9 -297 -25 -426 -101 -62 -36 -219
-153 -219 -163 0 -3 51 19 113 49 61 29 141 63 177 75 68 23 223 40 205 23
-32 -30 -150 -113 -290 -203 -88 -57 -177 -117 -198 -134 -45 -36 -114 -138
-147 -216 -68 -164 -186 -249 -328 -237 -70 6 -132 23 -132 37 0 4 19 11 43
14 121 18 239 116 272 226 6 20 -4 13 -56 -34 -92 -86 -152 -111 -259 -110
-99 1 -226 27 -290 59 -84 42 -122 96 -168 236 -53 161 -56 178 -42 244 12 58
20 71 180 292 112 155 311 451 394 585 99 162 153 275 182 384 37 144 88 239
219 408 192 247 410 506 426 506 4 0 29 -22 54 -49 38 -41 165 -123 165 -107
0 3 -20 36 -44 73 -112 174 -122 215 -141 583 -8 157 -17 306 -19 333 -3 26
-2 47 2 47 4 0 43 -18 87 -41z m1845 -118 c417 -73 806 -265 1088 -535 39 -38
72 -73 72 -77 0 -5 -31 12 -69 36 -38 25 -73 45 -76 45 -4 0 -19 9 -34 19 -46
33 -206 110 -324 156 -253 98 -459 135 -758 135 -378 0 -642 -54 -928 -191
-57 -27 -106 -48 -108 -46 -2 3 -21 41 -43 85 -21 45 -55 106 -75 137 l-35 56
72 34 c147 67 422 143 598 165 128 15 488 5 620 -19z m-2941 -43 c92 -69 120
-99 127 -136 8 -44 -11 -131 -46 -207 -50 -108 -42 -109 -150 20 -52 63 -95
118 -94 122 0 4 15 39 33 77 18 38 38 91 44 118 7 26 16 48 21 48 5 0 34 -19
65 -42z m302 -228 c130 -102 148 -132 135 -229 -3 -27 -17 -81 -31 -120 -23
-70 -84 -191 -95 -191 -6 0 -178 211 -193 237 -5 8 7 44 32 95 26 52 47 115
57 171 10 48 20 87 24 87 4 0 36 -22 71 -50z m2819 -91 c113 -13 309 -62 423
-105 364 -140 654 -356 917 -684 231 -287 344 -382 524 -441 99 -33 67 -44
-119 -44 -133 1 -161 4 -254 29 -182 50 -319 114 -491 231 -61 40 -110 70
-110 66 0 -12 94 -141 137 -188 21 -23 88 -85 148 -139 115 -101 127 -113 212
-206 260 -290 412 -730 390 -1137 -13 -243 -57 -405 -169 -626 -53 -105 -150
-253 -155 -238 -2 7 5 54 15 105 43 198 57 395 43 593 -25 361 -116 681 -265
930 -53 89 -100 146 -82 100 133 -333 177 -722 117 -1014 -38 -181 -125 -360
-232 -476 -26 -28 -38 -49 -33 -57 4 -7 4 -10 0 -6 -5 4 -38 -18 -74 -49 -259
-220 -643 -382 -1104 -467 -73 -14 -169 -27 -213 -31 -44 -3 -108 -8 -142 -11
l-63 -5 0 94 0 93 93 18 c393 74 812 323 1057 628 223 276 318 523 350 908 25
301 -40 699 -155 948 -182 392 -500 722 -865 896 -208 99 -461 174 -666 198
-57 6 -104 15 -104 18 0 7 154 43 261 61 171 28 411 31 609 8z m-2505 -154
c111 -87 195 -163 195 -177 0 -23 -249 -332 -275 -342 -20 -7 -104 69 -130
118 l-18 34 31 48 c17 27 40 71 51 97 26 60 61 195 61 234 0 34 9 46 24 35 6
-5 34 -26 61 -47z m1806 -2345 c63 -18 129 -95 129 -153 0 -42 -27 -114 -52
-142 -29 -30 -107 -54 -160 -47 -75 9 -148 100 -148 186 0 64 61 133 138 156
37 11 52 11 93 0z m14 -487 c-2 -16 -5 -347 -5 -738 0 -390 -3 -745 -7 -788
l-6 -78 -41 6 c-23 4 -44 10 -47 14 -4 3 -10 367 -14 809 l-7 802 66 0 66 0
-5 -27z m-295 -556 l55 -12 3 -129 3 -128 -23 6 c-69 21 -112 27 -193 28 -213
1 -374 -87 -456 -249 -32 -63 -34 -73 -34 -168 1 -88 4 -107 28 -156 33 -69
84 -126 154 -172 111 -74 226 -108 643 -188 360 -69 603 -181 735 -340 134
-160 154 -420 47 -623 -46 -88 -154 -198 -243 -247 -65 -35 -250 -112 -301
-124 l-28 -7 0 85 0 85 73 27 c123 47 236 122 221 147 -4 6 -3 8 4 5 13 -9 53
39 83 99 31 64 38 188 15 266 -31 109 -108 190 -241 257 -102 50 -202 79 -535
151 -260 57 -391 95 -495 146 -263 128 -397 322 -396 573 1 143 38 250 135
377 116 154 293 260 494 294 69 11 189 10 252 -3z m-7 -384 c37 -10 61 -23 66
-34 3 -10 8 -147 10 -304 l3 -285 -25 0 c-14 0 -69 9 -123 20 -312 64 -443
164 -444 339 0 130 74 213 235 267 58 18 207 17 278 -3z m287 -1917 c-1 -391
-4 -737 -7 -769 -6 -57 -7 -58 -32 -52 -14 3 -31 12 -38 18 -8 9 -13 219 -16
778 l-6 767 50 -16 49 -16 0 -710z m203 648 c127 -63 189 -143 191 -244 1 -77
-26 -139 -83 -193 -48 -45 -156 -107 -186 -107 -13 0 -15 36 -15 290 0 201 3
290 11 290 6 0 43 -16 82 -36z m-466 -1016 c-30 -29 -67 -78 -83 -108 -25 -48
-29 -66 -29 -140 0 -69 4 -93 23 -128 31 -58 120 -125 216 -163 156 -61 281
-126 324 -169 22 -23 55 -69 72 -102 25 -50 30 -73 29 -127 -1 -91 -14 -122
-23 -58 -23 151 -119 243 -338 321 -218 78 -327 143 -382 230 -81 127 -84 261
-11 407 28 55 124 157 201 213 l49 35 3 -79 3 -79 -54 -53z m63 -237 c0 -66
-4 -122 -8 -125 -16 -10 -52 70 -52 115 0 47 32 129 50 129 6 0 10 -43 10
-119z m167 -577 l24 -7 -4 -331 c-2 -182 -7 -341 -12 -353 -4 -13 -13 -23 -20
-23 -31 0 -37 54 -42 394 -5 318 -5 339 12 333 9 -4 28 -10 42 -13z m161 -116
c36 -45 31 -162 -8 -210 -19 -23 -19 -22 -20 100 0 117 5 137 28 110z"/>
<path d="M3994 8550 c4 -14 11 -68 16 -120 31 -309 44 -376 88 -457 23 -42
152 -184 162 -178 5 3 14 38 20 78 15 85 8 218 -16 297 -36 120 -120 254 -219
350 -48 46 -56 51 -51 30z"/>
<path d="M3866 7119 c-90 -12 -191 -36 -231 -55 -57 -27 -91 -74 -138 -191
l-44 -112 52 30 c41 23 71 31 154 39 164 17 199 39 261 162 23 46 53 95 68
111 l26 27 -40 -1 c-21 -1 -70 -6 -108 -10z"/>
<path d="M2710 5873 c-8 -3 -30 -14 -48 -25 l-32 -20 25 -30 c31 -37 32 -59 1
-95 -72 -86 -57 -155 29 -139 81 16 147 165 115 260 -15 48 -47 65 -90 49z"/>
<path d="M2099 8423 c-602 -620 -1014 -1485 -1114 -2338 -45 -391 -45 -666 0
-1040 70 -572 280 -1160 603 -1685 247 -402 635 -830 1022 -1126 345 -263 726
-473 1142 -628 268 -100 605 -182 903 -221 l50 -7 -52 54 c-28 29 -67 80 -85
112 l-33 59 -115 24 c-599 123 -1147 366 -1631 724 -722 534 -1253 1304 -1488
2156 -175 632 -194 1246 -60 1881 147 698 500 1363 1004 1895 l95 100 -43 46
c-24 26 -52 59 -61 74 -10 15 -22 27 -26 27 -4 0 -54 -48 -111 -107z"/>
</g>
</svg>
