<svg version="1.1" id="Layer_1" xmlns="http://www.w3.org/2000/svg" xmlns:xlink="http://www.w3.org/1999/xlink" x="0px" y="0px"
	 width="100%" viewBox="0 0 1024 1024" enable-background="new 0 0 1024 1024" xml:space="preserve">
<path fill="#000000" opacity="1.000000" stroke="none" 
	d="
M828.631958,201.559708 
	C826.470459,208.611069 824.405640,215.286453 822.474609,222.000351 
	C821.890625,224.030670 821.200317,226.115585 824.189026,227.330368 
	C833.966431,231.304367 836.103760,240.871552 833.686462,249.932373 
	C829.829346,264.390381 825.586609,278.763245 820.910645,292.975922 
	C819.171326,298.262695 819.871155,302.187347 823.361694,306.181427 
	C826.544739,309.823578 829.265869,313.821198 831.221252,318.296509 
	C835.632507,328.392365 834.842102,338.311798 830.586548,348.269501 
	C820.116333,372.768585 809.733337,397.305115 799.386780,421.856720 
	C794.149414,434.284576 789.012634,446.755646 783.931335,459.248230 
	C779.621033,469.845215 780.109619,480.350800 784.856567,490.723145 
	C787.921143,497.419495 791.831360,503.600677 796.082153,509.587097 
	C799.555420,514.478516 803.015381,519.379639 805.610291,524.822815 
	C810.369812,534.806396 811.031982,545.161987 806.958923,555.335632 
	C801.949219,567.848938 796.291443,580.109009 790.707214,592.384521 
	C783.541809,608.135803 770.692017,616.436035 754.070618,619.294250 
	C717.701965,625.548035 683.238281,618.587219 650.106689,603.577026 
	C623.385193,591.470947 599.900757,574.852844 580.276550,552.825989 
	C567.301086,538.261963 563.764648,521.821350 568.523376,503.199615 
	C571.370483,492.058289 575.185120,481.234650 579.028137,470.420013 
	C585.661621,451.753113 599.770081,442.645721 618.626587,439.703735 
	C623.050964,439.013458 627.487122,438.398407 631.908630,437.690857 
	C645.797119,435.468262 655.706482,427.867310 661.763733,415.267883 
	C673.169678,391.543152 682.822998,367.053162 693.195557,342.877716 
	C698.842041,329.717560 704.252258,316.456268 709.852234,303.275940 
	C717.178772,286.032196 730.241699,276.988403 748.994263,276.730377 
	C753.991516,276.661621 756.560852,274.334778 758.532898,270.232391 
	C764.522888,257.771912 770.730957,245.416061 776.689209,232.940720 
	C780.865295,224.196915 786.533875,217.849915 797.254517,218.651199 
	C800.724243,218.910522 800.709595,216.053879 801.272217,213.959671 
	C805.253052,199.142105 810.035583,184.629471 816.868774,170.839752 
	C825.634094,153.150772 837.193726,137.671066 852.333130,124.882172 
	C856.109985,121.691727 859.075928,120.386917 863.417969,124.335548 
	C866.548645,127.182381 870.539490,128.857788 872.787537,132.963272 
	C874.450562,136.000458 874.016174,137.645859 871.598267,139.726837 
	C862.874146,147.235306 854.470825,155.084717 847.626160,164.420670 
	C839.380066,175.668091 833.484436,188.130707 828.631958,201.559708 
M790.669067,535.015747 
	C789.071045,530.392944 786.281372,526.458862 783.550415,522.469360 
	C780.072388,517.388489 776.524841,512.333862 773.401001,507.035828 
	C763.330139,489.955750 760.136841,471.970428 767.468628,453.012604 
	C771.490417,442.613312 776.019897,432.410187 780.327820,422.121643 
	C791.065552,396.477295 801.867065,370.859406 812.520386,345.180054 
	C817.233337,333.819611 815.311768,325.581360 806.417236,317.177032 
	C803.254333,314.188446 799.791748,311.602814 795.948120,309.549988 
	C782.926270,302.595093 768.733521,298.743256 754.689453,294.754089 
	C743.704834,291.633972 733.232056,296.992126 727.677673,306.992920 
	C726.388000,309.314972 725.306641,311.762604 724.260376,314.208466 
	C709.661194,348.336975 695.068237,382.468170 680.510010,416.614197 
	C673.797729,432.357666 663.801514,444.937317 647.425842,451.510468 
	C639.967224,454.504272 632.160156,456.051239 624.272888,457.338715 
	C615.289062,458.805206 606.643555,461.083466 600.332275,468.366486 
	C596.250366,473.076965 596.523499,474.493378 602.191467,476.802246 
	C647.044006,495.073273 691.891418,513.357300 736.781433,531.536072 
	C754.029541,538.520874 771.384216,545.242554 788.643127,552.065491 
	C792.039978,547.015198 792.611816,542.636047 790.669067,535.015747 
M701.493958,536.144043 
	C665.038086,521.215576 628.582214,506.287048 592.195679,491.386932 
	C580.752625,514.500854 583.231018,529.150085 597.534668,544.980530 
	C605.836914,554.168945 615.334229,562.021912 625.640503,568.887695 
	C658.561096,590.818848 694.460449,603.831543 734.327576,603.503296 
	C754.498352,603.337341 771.797607,597.313843 778.871399,575.329407 
	C781.209595,568.062683 781.805176,567.999878 774.573669,565.287476 
	C750.251099,556.164368 726.083130,546.656677 701.493958,536.144043 
M792.482727,286.880829 
	C794.544373,287.521973 796.631470,288.092407 798.661621,288.821289 
	C801.523560,289.848816 803.042969,288.706879 803.897339,285.990112 
	C807.687012,273.938904 811.563477,261.914917 815.323425,249.854553 
	C816.497070,246.090012 815.200928,243.274612 811.416199,241.894531 
	C807.513733,240.471527 803.547424,239.224457 799.636108,237.824646 
	C796.366943,236.654633 793.927856,237.866180 792.545166,240.705978 
	C786.792480,252.521011 781.199646,264.413940 775.561401,276.284546 
	C774.044922,279.477417 775.259277,281.164093 778.513306,282.138855 
	C782.970825,283.474121 787.333923,285.124359 792.482727,286.880829 
z"/>
<path fill="#000000" opacity="1.000000" stroke="none" 
	d="
M97.478363,738.342285 
	C87.610649,709.292847 83.621841,679.748779 84.908867,649.573364 
	C86.775970,605.797791 98.416100,564.409607 116.062370,524.479248 
	C124.883087,504.519562 135.971466,485.620361 143.494781,465.068542 
	C151.486023,443.238403 156.309921,420.827759 157.850403,397.546539 
	C160.346176,359.827362 153.833038,323.432587 143.557892,287.435913 
	C135.711197,259.946777 125.753998,233.350662 110.779144,208.857391 
	C107.657379,203.751312 103.923645,199.020859 100.765190,193.935181 
	C98.952820,191.016922 96.814667,187.419312 100.396622,184.529495 
	C106.277481,179.784958 108.723015,179.765228 113.242264,184.449448 
	C125.323639,196.971893 133.658630,212.014908 140.762970,227.674011 
	C156.164673,261.621796 166.961197,297.036713 173.099152,333.824707 
	C183.058640,393.517273 174.946274,450.362823 146.841431,504.298767 
	C129.944214,536.726196 116.207932,570.450500 108.847687,606.482544 
	C98.034286,659.419495 101.986153,710.636230 126.084053,759.709106 
	C142.657181,793.458496 152.391769,829.294250 157.473648,866.481628 
	C158.780930,876.047913 159.967758,885.611694 160.509186,895.247681 
	C160.856689,901.432800 159.504074,901.790100 153.519318,900.414978 
	C142.791321,897.949829 142.679184,889.743652 141.722717,881.455872 
	C136.798477,838.786133 125.631889,797.929260 106.003792,759.549194 
	C102.587685,752.869507 100.094994,745.784241 97.478363,738.342285 
z"/>
<path fill="#000000" opacity="1.000000" stroke="none" 
	d="
M404.525513,305.391174 
	C402.136658,309.262695 405.371399,309.955139 407.354584,311.086060 
	C426.931763,322.249847 445.654999,334.660065 462.845551,349.272552 
	C496.138306,377.572296 522.911743,410.645172 537.495117,452.460907 
	C543.596802,469.956757 546.894836,488.057159 548.419678,506.520447 
	C549.117493,514.971069 550.345886,523.381531 550.207458,531.884521 
	C550.179504,533.597961 550.779297,535.565491 548.607605,537.364258 
	C546.095520,533.428589 543.635864,529.518738 539.769470,526.906738 
	C537.822266,526.375305 537.635193,528.810669 535.863220,529.142273 
	C535.565796,528.722351 534.980408,528.261475 534.896240,527.722351 
	C533.487061,518.700867 532.126892,509.671661 530.782288,500.640198 
	C523.769470,453.536377 502.855255,413.586334 468.943146,380.298492 
	C439.526581,351.423492 405.831177,329.293976 366.920349,315.331116 
	C365.375336,314.776703 363.818665,314.031677 362.529297,313.036285 
	C360.119781,311.176086 359.794922,308.592987 360.758881,305.825470 
	C361.690369,303.151062 363.842194,302.567932 366.366943,302.700958 
	C366.865906,302.727264 367.408325,302.629181 367.857788,302.791016 
	C376.912048,306.050507 382.405670,301.353455 387.676605,294.706604 
	C404.002930,274.118591 412.022888,250.732544 410.476532,224.636475 
	C409.042755,200.440018 399.334442,178.970963 385.768890,159.114471 
	C382.547516,154.399170 378.146240,150.190460 378.580322,143.626999 
	C378.983032,137.538330 383.424042,134.393387 389.254822,136.346649 
	C391.889648,137.229279 394.043732,138.785233 395.610687,140.985031 
	C411.538422,163.345398 424.006958,187.406662 428.124969,214.799408 
	C432.856842,246.275635 425.693329,275.295135 407.283966,301.406799 
	C406.420013,302.632202 405.571930,303.868805 404.525513,305.391174 
z"/>
<path fill="#000000" opacity="1.000000" stroke="none" 
	d="
M741.167480,734.356567 
	C715.931946,742.662964 690.204651,745.703430 664.426331,743.107544 
	C593.714661,735.986938 539.871765,701.559143 503.571472,640.204041 
	C498.987183,632.455627 495.049164,624.369812 491.758759,615.980042 
	C491.333771,614.896362 490.949066,613.795471 490.584747,612.689636 
	C488.445892,606.197754 490.361237,600.465637 495.253113,598.683105 
	C500.678864,596.706116 505.599701,599.504944 508.345917,606.222351 
	C525.150391,647.326965 552.704773,679.138367 591.344360,700.985596 
	C619.116638,716.688293 649.096924,724.275269 681.157593,723.975464 
	C706.142517,723.741760 730.067078,719.407410 752.742249,708.664062 
	C758.481262,705.945068 763.847351,707.512939 766.273438,712.065918 
	C768.934204,717.059387 767.288208,722.281799 761.744446,725.671265 
	C755.449829,729.519775 748.466614,731.824280 741.167480,734.356567 
z"/>
<path fill="#000000" opacity="1.000000" stroke="none" 
	d="
M440.157837,775.199402 
	C430.141876,782.437622 420.153778,789.059387 409.401398,794.440918 
	C406.572998,795.856506 405.441559,797.861816 405.215881,801.112732 
	C402.599396,838.799683 398.105896,876.161011 386.435974,912.356384 
	C384.437653,918.554443 381.632812,921.889832 374.880646,922.070862 
	C369.086426,922.226135 366.955353,920.456360 368.465179,914.853638 
	C372.056244,901.527710 375.638397,888.205322 378.143494,874.621155 
	C381.791077,854.841370 384.565735,834.950623 385.744781,814.855530 
	C385.841919,813.199890 386.150146,811.555908 386.375702,809.908630 
	C386.904602,806.046021 386.921875,802.769409 383.347321,799.662964 
	C378.410126,795.372375 379.860626,789.059631 386.062195,785.905151 
	C403.167450,777.204529 419.743683,767.668884 434.861481,755.763367 
	C451.179779,742.912292 465.495361,728.103821 478.025696,711.551941 
	C482.665771,705.422607 482.660217,705.461304 489.422089,708.882812 
	C490.580719,709.469177 491.915222,709.794373 493.207001,710.016052 
	C498.832855,710.981812 499.500732,712.081909 496.360229,717.111694 
	C486.852234,732.339844 474.781799,745.414124 461.665253,757.562866 
	C454.941040,763.790955 447.837738,769.568420 440.157837,775.199402 
z"/>
<path fill="#000000" opacity="1.000000" stroke="none" 
	d="
M735.708984,675.953125 
	C715.615967,682.984009 695.414185,685.278442 674.507202,683.580750 
	C651.209900,681.689087 629.369446,675.408813 609.034180,664.099976 
	C581.741028,648.921631 560.073608,628.032471 545.676575,600.025269 
	C544.148682,597.053040 542.831604,594.025208 542.156128,590.720642 
	C541.183655,585.963074 543.231628,580.737915 547.144592,580.065369 
	C553.665405,578.944580 558.670532,578.911743 561.108643,584.505859 
	C579.845398,627.497070 614.199951,650.915833 658.471863,660.975708 
	C681.640137,666.240173 705.055115,665.388184 727.868530,657.661682 
	C734.461548,655.428711 739.539062,656.851624 741.705078,661.597656 
	C744.129944,666.910767 742.058105,672.106567 735.708984,675.953125 
z"/>
</svg>