<svg version="1.1" id="Layer_1" xmlns="http://www.w3.org/2000/svg" xmlns:xlink="http://www.w3.org/1999/xlink" x="0px" y="0px"
	 width="100%" viewBox="0 0 1024 1024" enable-background="new 0 0 1024 1024" xml:space="preserve">
<path fill="#000000" opacity="1.000000" stroke="none" 
	d="
M230.992249,168.912033 
	C247.831741,157.406403 266.080109,151.661438 286.160858,151.663315 
	C437.987091,151.677460 589.813904,151.427429 741.639099,151.810074 
	C781.292725,151.910019 809.965149,171.247650 827.460266,206.725388 
	C832.950012,217.858002 835.586975,229.891281 835.372192,242.446945 
	C835.243896,249.944412 835.358765,257.445892 835.344543,264.945496 
	C835.326233,274.628693 830.670532,279.349426 821.024292,279.355103 
	C758.527222,279.391937 696.025208,278.918335 633.534241,279.546631 
	C539.876404,280.488281 446.220825,279.792847 352.564911,280.066498 
	C349.065918,280.076721 345.562958,279.862061 342.068024,279.963898 
	C329.777344,280.322083 321.213806,288.627838 320.334290,300.918732 
	C320.227295,302.413696 320.154083,303.917450 319.929932,305.396606 
	C318.636536,313.931610 314.215820,317.866150 305.517944,318.284241 
	C296.347870,318.725067 296.341766,318.725067 296.340729,327.811981 
	C296.339050,342.477936 296.425781,357.144623 296.297699,371.809418 
	C296.262817,375.807037 297.104126,377.115234 301.482025,375.884979 
	C334.758728,366.533569 368.104004,357.426361 401.420105,348.214752 
	C409.796631,345.898712 418.285187,344.624756 427.000732,344.634064 
	C472.831848,344.682922 518.663147,344.690918 564.494263,344.641022 
	C583.795898,344.619995 601.118408,350.514252 616.681396,361.755676 
	C626.527649,368.867828 632.295410,368.199646 640.172363,358.746979 
	C654.159851,341.961426 671.660156,330.797882 693.475647,328.251038 
	C721.942505,324.927643 747.696472,330.813660 766.160645,354.960846 
	C776.560425,368.561584 779.490112,384.624329 778.171997,401.300262 
	C776.560913,421.683319 768.708679,439.288879 752.491272,452.460663 
	C741.219177,461.615814 728.264099,466.884918 713.816101,468.358124 
	C693.375244,470.442413 672.871460,468.911499 652.399231,469.206329 
	C647.315247,469.279572 644.231873,470.795624 642.682800,475.740753 
	C640.449707,482.869598 636.785156,489.363190 632.482605,495.473450 
	C634.828125,497.259613 636.898560,496.620575 638.804810,496.621887 
	C698.468689,496.662933 758.134216,496.899994 817.795410,496.502289 
	C834.715271,496.389465 855.731750,509.299072 854.352173,533.325989 
	C853.866638,541.782349 855.193237,550.298828 853.335693,558.720947 
	C849.954651,574.050354 839.043518,584.346741 823.644836,586.360229 
	C820.256104,586.803284 818.358765,587.811096 818.098328,591.773865 
	C817.134033,606.441895 812.514404,619.805664 802.476135,630.864319 
	C791.174500,643.314819 777.094971,650.261658 760.212280,650.305603 
	C699.048950,650.464966 637.884888,650.374268 576.721130,650.378906 
	C567.098755,650.379639 568.928650,650.012756 568.938049,657.962585 
	C568.983032,695.960510 569.084717,733.958496 569.170776,771.956421 
	C569.185852,778.618225 569.195801,778.637268 575.684937,778.641785 
	C592.350830,778.653320 609.016724,778.642700 625.682617,778.647583 
	C653.811829,778.655823 675.946777,796.271667 680.760742,823.902771 
	C682.836304,835.816284 681.671265,848.187134 681.044006,860.316528 
	C680.732666,866.337585 674.518555,870.714233 667.387817,871.303711 
	C666.062378,871.413269 664.722839,871.367859 663.389771,871.367920 
	C562.227844,871.369385 461.065948,871.374146 359.904053,871.360046 
	C346.766602,871.358215 341.489471,866.133728 341.714569,852.811462 
	C341.891357,842.348511 340.670898,831.844238 342.599182,821.420410 
	C346.350494,801.141296 363.997284,783.427856 384.225677,779.705994 
	C388.324158,778.951904 392.430908,778.588867 396.614594,778.610718 
	C413.280029,778.697876 429.946625,778.580505 446.611694,778.697815 
	C450.031464,778.721863 451.751312,778.073242 451.738190,774.074463 
	C451.607910,734.410095 451.617554,694.745056 451.680206,655.080383 
	C451.685577,651.671936 450.551025,650.344910 447.052216,650.356384 
	C412.566742,650.469666 378.079712,650.664856 343.595642,650.441467 
	C317.297394,650.271057 291.001648,651.682678 264.703735,650.384705 
	C235.277603,648.932373 211.849030,625.310303 210.654785,595.763855 
	C210.327621,587.669189 210.024872,587.417053 202.086807,587.340576 
	C197.596863,587.297241 193.007675,587.634949 188.637604,586.841003 
	C172.268646,583.867126 161.610428,573.416748 159.149490,556.558350 
	C157.592468,545.892029 157.675339,534.834839 159.125732,524.154968 
	C161.122406,509.452911 171.299637,499.586700 185.932419,496.983856 
	C189.910492,496.276245 190.723663,494.727570 190.709717,491.172974 
	C190.600449,463.341370 190.788269,435.507782 190.530151,407.678070 
	C190.440155,397.974304 193.229706,395.572906 203.335190,394.665527 
	C208.955109,394.160950 214.560928,393.481476 220.186874,393.068420 
	C223.678802,392.812042 224.954285,391.356903 224.923447,387.711700 
	C224.741608,366.214111 224.740097,344.714294 224.824997,323.215820 
	C224.839279,319.599487 223.693115,318.083679 219.936462,318.242767 
	C214.613083,318.468201 209.272064,318.348267 203.939865,318.278351 
	C195.854813,318.172363 190.823639,313.780273 190.755280,305.785706 
	C190.551514,281.955536 189.395309,258.031708 191.046524,234.314026 
	C192.990585,206.389572 208.144394,185.184723 230.992249,168.912033 
M366.500000,179.142639 
	C338.340973,179.194839 310.177338,178.945511 282.024078,179.375473 
	C246.756149,179.914108 217.372192,210.309570 217.349304,245.666351 
	C217.341858,257.163422 217.346375,268.660461 217.346710,280.157532 
	C217.347031,291.118530 217.347702,291.085571 227.957047,291.064514 
	C248.451660,291.023895 268.946869,290.945740 289.440552,291.078186 
	C293.267792,291.102875 295.234711,290.290283 296.434692,286.142548 
	C302.126831,266.467804 319.512360,253.688477 339.963684,253.658951 
	C458.926086,253.487198 577.889648,254.111557 696.850525,252.847580 
	C732.171143,252.472290 767.498657,252.649979 802.822205,252.785080 
	C807.490967,252.802933 809.024292,251.313705 808.704346,246.747803 
	C807.895020,235.196793 806.185547,223.891098 800.240540,213.718506 
	C786.319824,189.898560 765.649231,178.774628 737.904114,178.851089 
	C614.436768,179.191391 490.968170,179.087982 366.500000,179.142639 
M535.500000,371.135193 
	C499.503479,371.202484 463.506958,371.313690 427.510498,371.296906 
	C420.955139,371.293854 414.607086,372.224701 408.318115,373.952728 
	C372.743469,383.727722 337.180298,393.546143 301.553406,403.127197 
	C297.586060,404.194061 296.237305,405.798523 296.262329,409.887146 
	C296.425659,436.550629 296.341644,463.215576 296.347992,489.880066 
	C296.349609,496.641144 296.365387,496.654449 303.329773,496.654755 
	C393.155762,496.658478 482.981750,496.646851 572.807739,496.691833 
	C577.343689,496.694092 581.798828,496.109680 586.139404,495.079132 
	C602.802246,491.123016 613.558411,480.467834 618.792908,464.474731 
	C622.004211,454.662933 627.808472,447.980347 637.665894,444.882172 
	C640.873230,443.874115 644.156067,443.670135 647.512695,443.597778 
	C668.313721,443.149384 689.165527,444.956299 709.915100,442.676849 
	C730.088074,440.460724 745.101440,427.147217 750.162720,407.647980 
	C755.221252,388.159241 749.449463,370.648376 734.850525,361.192566 
	C715.504272,348.661865 686.657410,351.274689 669.942383,367.164917 
	C664.992310,371.870789 660.384094,376.939331 655.384705,381.589539 
	C647.767822,388.674469 638.690125,392.252808 628.211060,392.385223 
	C617.216492,392.524170 607.764648,388.441284 599.055603,382.192017 
	C588.568420,374.666931 576.973572,370.937469 563.995728,371.239868 
	C554.836304,371.453369 545.665649,371.187256 535.500000,371.135193 
M521.500061,523.377014 
	C491.506409,523.376465 461.512756,523.377563 431.519104,523.374939 
	C352.869232,523.367981 274.219360,523.358093 195.569473,523.353760 
	C187.722809,523.353333 185.408722,525.619934 185.357590,533.360779 
	C185.326782,538.026184 185.344284,542.692078 185.348267,547.357727 
	C185.357513,558.149597 187.822159,560.654541 198.502930,560.655029 
	C302.147491,560.659851 405.792023,560.660156 509.436584,560.659729 
	C611.248169,560.659302 713.059814,560.657715 814.871399,560.652893 
	C824.285706,560.652466 827.596619,557.437927 827.645996,548.256470 
	C827.671082,543.590942 827.656006,538.925110 827.650391,534.259460 
	C827.639465,525.250183 825.800049,523.369934 816.937317,523.369934 
	C718.791565,523.369995 620.645874,523.374512 521.500061,523.377014 
M535.500000,587.278503 
	C503.002411,587.297424 470.504852,587.326477 438.007263,587.333069 
	C373.178680,587.346313 308.350037,587.389709 243.521713,587.263611 
	C238.877457,587.254578 237.126358,588.300964 237.237228,593.313110 
	C237.614365,610.362793 250.958267,623.636902 268.502502,623.639526 
	C430.990601,623.663391 593.478699,623.661743 755.966797,623.639221 
	C774.075195,623.636719 786.649353,613.308044 790.308838,595.664368 
	C791.834656,588.308167 790.989441,587.232605 783.481750,587.233398 
	C701.154480,587.242188 618.827271,587.261414 535.500000,587.278503 
M607.500000,844.700073 
	C619.326294,844.694885 631.153442,844.774841 642.978699,844.662109 
	C656.466064,844.533508 654.428223,846.621582 654.663330,833.084595 
	C654.850769,822.298706 650.149292,814.208252 641.144104,808.531799 
	C635.052979,804.692078 628.240723,804.950562 621.358826,804.968323 
	C547.237427,805.159851 473.115295,805.413818 398.994690,805.193481 
	C381.368866,805.141113 366.514557,816.022156 368.724121,836.608887 
	C369.701874,845.718384 369.063080,844.756958 377.638611,844.757080 
	C453.925751,844.757751 530.212891,844.724060 607.500000,844.700073 
M541.696533,738.500000 
	C541.682861,711.018066 541.592896,683.535706 541.735718,656.054626 
	C541.757751,651.806213 540.688171,650.210022 536.154297,650.276123 
	C519.002502,650.526428 501.843048,650.532898 484.690948,650.299866 
	C480.208221,650.239014 479.097534,651.705688 479.118805,656.019226 
	C479.311890,695.159302 479.333679,734.300476 479.273041,773.441101 
	C479.267212,777.210144 480.166107,778.770874 484.290131,778.724304 
	C501.776367,778.527100 519.267517,778.524658 536.753540,778.733154 
	C540.878845,778.782349 541.829773,777.249817 541.767334,773.476501 
	C541.580017,762.153687 541.697815,750.825867 541.696533,738.500000 
M259.564148,318.312805 
	C252.174011,318.320587 252.163589,318.320587 252.164719,325.624969 
	C252.173019,379.078033 252.165085,432.531128 252.212509,485.984161 
	C252.223648,498.544617 250.947647,496.471924 262.751617,496.639008 
	C269.632202,496.736420 269.647705,496.646393 269.648193,489.810852 
	C269.652039,435.691559 269.657166,381.572235 269.643433,327.452942 
	C269.640900,317.405334 270.478760,318.359802 259.564148,318.312805 
M217.365250,425.106873 
	C217.365250,448.702240 217.365250,472.297607 217.365250,495.837311 
	C224.463181,496.304382 224.846512,496.018768 224.854080,490.108490 
	C224.881577,468.616516 224.896851,447.124420 224.837067,425.632599 
	C224.832016,423.816345 225.722427,421.005127 222.932724,420.692566 
	C220.615356,420.432922 217.751862,420.784332 217.365250,425.106873 
z"/>
<path fill="#000000" opacity="1.000000" stroke="none" 
	d="
M390.964539,451.123383 
	C386.112244,447.846619 381.443939,444.926392 377.063171,441.624634 
	C370.291290,436.520721 368.734924,429.706512 372.667450,423.815063 
	C376.435089,418.170624 384.074707,416.791351 390.885895,421.073639 
	C397.785797,425.411652 404.517700,430.004669 411.563812,434.130493 
	C416.012299,436.735260 420.526978,437.253204 425.686249,436.408569 
	C424.273926,430.843872 423.011627,425.401184 421.483368,420.034271 
	C420.641357,417.077362 420.627167,414.117767 420.688019,411.129852 
	C420.814606,404.912476 424.339508,400.503998 429.721710,399.710205 
	C436.649628,398.688446 441.431946,401.154327 443.459106,407.543335 
	C445.309937,413.376526 446.444489,419.434174 447.998962,425.365601 
	C448.544739,427.448212 449.337341,429.474243 450.125488,431.483734 
	C452.451141,437.413330 453.859009,437.982910 460.755219,435.524902 
	C458.699677,428.633850 456.912689,421.611847 455.955139,414.415924 
	C455.280426,409.345581 455.882202,404.545624 460.156250,401.321075 
	C464.194305,398.274597 468.824280,398.200195 473.290192,400.754120 
	C477.878723,403.378143 479.083649,407.880096 479.291138,412.659180 
	C479.584930,419.426605 481.378113,425.765076 484.243622,431.816254 
	C486.475769,436.529938 488.219940,437.213257 494.380676,436.041870 
	C492.108643,428.774628 489.840851,421.538696 488.879120,413.978973 
	C487.502991,403.161346 495.552979,396.092896 505.364716,399.670654 
	C510.079224,401.389801 511.808441,405.175934 512.305786,409.722260 
	C513.122314,417.186401 514.690002,424.436218 517.432312,431.459991 
	C519.178833,435.933167 521.884460,437.886383 527.200073,435.998779 
	C526.032837,431.508820 524.867432,426.945557 523.657043,422.394226 
	C522.574341,418.323059 522.584961,414.172943 522.647522,410.011597 
	C522.750183,403.186310 525.999023,399.264404 532.056946,398.685852 
	C538.765137,398.045197 544.121399,401.758209 545.260193,408.128632 
	C546.665344,415.989227 548.011475,423.850677 551.644104,431.074768 
	C554.044006,435.847351 556.123230,436.900574 561.463623,435.941071 
	C559.727356,428.735748 556.755615,421.825714 556.060547,414.418488 
	C555.036743,403.507874 559.728516,397.906372 568.753174,398.759338 
	C574.173706,399.271667 577.451355,402.948273 579.030212,407.785370 
	C580.515198,412.334717 581.319946,417.113953 582.297852,421.818268 
	C582.977905,425.089905 583.893311,428.245514 585.354675,431.269348 
	C586.847351,434.358093 589.079346,436.052887 592.537354,436.702301 
	C600.023010,438.108124 603.580261,442.657501 603.335693,449.902496 
	C603.104187,456.761383 599.146973,460.925537 591.790222,461.922974 
	C590.149109,462.145447 588.467529,462.123047 586.804626,462.123657 
	C534.831604,462.142517 482.856506,461.897491 430.886902,462.322479 
	C416.359711,462.441284 403.213287,459.550110 390.964539,451.123383 
z"/>
</svg>