<svg version="1.1" id="Layer_1" xmlns="http://www.w3.org/2000/svg" xmlns:xlink="http://www.w3.org/1999/xlink" x="0px" y="0px"
	 width="100%" viewBox="0 0 1024 1024" enable-background="new 0 0 1024 1024" xml:space="preserve">
<path fill="#000000" opacity="1.000000" stroke="none" 
	d="
M835.803833,889.433228 
	C837.008484,899.105896 838.174438,908.334839 839.166443,917.582397 
	C839.953491,924.919739 834.648376,931.098633 827.250000,931.339722 
	C820.756958,931.551392 814.252136,931.411682 807.752563,931.411682 
	C606.928040,931.411865 406.103546,931.410339 205.279037,931.408752 
	C204.279083,931.408752 203.279068,931.411438 202.279190,931.402100 
	C191.983688,931.305664 186.621231,925.255066 187.829666,915.049988 
	C188.787033,906.965027 189.783493,898.884583 190.777161,890.803955 
	C193.128708,871.680908 195.278275,852.515991 199.743164,833.736145 
	C205.512924,809.467957 214.502548,786.682190 231.776535,768.034241 
	C243.926651,754.917725 259.168732,746.290894 275.564972,739.874573 
	C298.508057,730.896179 321.885406,723.018433 344.760712,713.878235 
	C366.539886,705.175964 388.666168,697.069763 408.762634,684.663940 
	C423.613800,675.496094 430.641693,661.883057 430.650085,644.531921 
	C430.654938,634.532349 430.564331,624.531494 430.706512,614.533936 
	C430.751953,611.341370 429.940857,608.867737 427.709839,606.462280 
	C418.459503,596.488403 413.521637,584.013794 408.225922,571.792358 
	C404.916809,564.155579 401.892944,556.394287 398.809998,548.661316 
	C398.176514,547.072266 397.553619,545.614136 395.913025,544.792358 
	C383.515778,538.582336 377.134216,527.554321 373.165039,515.072754 
	C368.792511,501.322754 363.340363,487.621613 363.826904,472.896606 
	C364.240753,460.371765 367.794769,448.834198 379.301361,441.569946 
	C382.059784,439.828552 382.015472,437.302582 382.050507,434.585266 
	C382.290741,415.948364 382.819336,397.371674 387.437134,379.118866 
	C400.597626,327.099854 433.779388,296.222290 486.048828,285.735626 
	C518.136169,279.298004 549.304688,283.337921 578.251831,298.348145 
	C612.838684,316.282806 632.805908,345.690338 640.351807,383.735199 
	C643.670288,400.466248 644.793091,417.365540 644.206482,434.375031 
	C644.076599,438.141937 645.258850,440.387146 648.469666,442.495758 
	C657.176819,448.213959 660.331787,457.308319 662.333557,466.991760 
	C663.785095,474.013641 662.939209,480.880371 661.431763,487.749603 
	C658.825256,499.626282 655.893127,511.419128 650.889771,522.550415 
	C646.855103,531.526367 641.264099,539.315063 632.443115,544.265625 
	C630.126343,545.565857 628.865784,547.497803 627.832886,549.900696 
	C622.834534,561.527954 617.640564,573.070984 612.579956,584.671814 
	C609.222046,592.369141 604.934814,599.488464 599.328003,605.733032 
	C597.047424,608.273010 596.198120,610.960571 596.246216,614.331360 
	C596.398560,624.995422 596.419006,635.664490 596.276733,646.328796 
	C596.060059,662.571106 603.124023,674.951782 616.452393,683.661255 
	C632.998413,694.473267 651.275208,701.828430 669.642273,708.840637 
	C696.083557,718.935364 722.789856,728.349976 749.100464,738.768616 
	C771.098328,747.479492 790.568420,760.049011 804.667114,779.736084 
	C815.034424,794.212646 820.747559,810.650757 825.349670,827.604248 
	C830.813721,847.733032 833.282959,868.358093 835.803833,889.433228 
M467.696655,709.789795 
	C497.358795,709.794800 527.020935,709.794922 556.683044,709.806580 
	C574.464233,709.813599 581.280823,716.561096 581.318726,734.168091 
	C581.332703,740.667664 581.584229,747.179565 581.261230,753.662598 
	C581.034546,758.211060 582.476685,759.747498 587.160522,759.697876 
	C608.323425,759.473877 629.489990,759.578918 650.655212,759.597595 
	C657.360474,759.603516 660.562561,762.168579 662.567383,768.674622 
	C663.786743,772.631714 663.240784,776.611511 663.029785,780.581970 
	C662.535278,789.885376 661.379089,799.187622 661.464661,808.481384 
	C661.688782,832.814575 641.981384,857.831055 611.577820,857.432800 
	C584.917480,857.083557 558.248535,857.442505 531.584595,857.277161 
	C527.181213,857.249878 525.802185,858.722534 525.823914,863.041443 
	C525.885925,875.367371 525.540405,887.694885 525.408447,900.022400 
	C525.336853,906.714233 525.385742,906.719604 531.881775,906.719849 
	C623.042358,906.723022 714.203003,906.724854 805.363586,906.725769 
	C806.696716,906.725830 808.031677,906.662170 809.362671,906.712036 
	C811.994873,906.810486 812.977661,905.491333 812.695129,902.997864 
	C812.358276,900.024841 811.987915,897.054810 811.706543,894.076355 
	C809.656250,872.375244 806.892212,850.787781 800.709229,829.805115 
	C794.625916,809.160950 785.750061,790.218872 767.758545,776.950500 
	C757.466919,769.360474 746.043274,763.898621 734.165649,759.478271 
	C710.605164,750.710205 686.969177,742.151672 663.571228,732.946106 
	C643.407898,725.013184 623.121765,717.249084 604.892761,705.371277 
	C583.555786,691.468323 572.236633,671.737732 572.697937,645.827637 
	C572.788818,640.722229 572.710938,635.613770 572.710938,629.218628 
	C554.157593,641.753845 535.027771,648.588135 513.427856,648.431519 
	C492.087860,648.276794 472.657440,642.530945 454.134613,629.891418 
	C454.134613,637.519043 454.284332,643.502502 454.106964,649.476318 
	C453.539185,668.597168 446.351379,684.633423 431.841034,697.348816 
	C417.426025,709.980652 400.234558,717.753967 382.887604,725.010681 
	C352.324554,737.796021 321.436005,749.800293 290.123627,760.656555 
	C257.684937,771.903381 236.664948,793.823914 226.874161,826.809082 
	C220.688812,847.647644 217.613190,868.979126 215.351440,890.489014 
	C214.803391,895.701111 213.740494,900.890625 214.153778,906.717651 
	C219.542587,906.717651 224.669983,906.717834 229.797394,906.717651 
	C317.958191,906.714783 406.119019,906.687195 494.279694,906.781921 
	C498.646393,906.786621 500.982025,906.271240 500.822632,900.960754 
	C500.447845,888.472839 500.495392,875.960938 500.803497,863.469421 
	C500.922882,858.630249 499.406525,857.238464 494.596039,857.273254 
	C467.266022,857.470947 439.933502,857.426575 412.602356,857.320007 
	C390.420593,857.233521 370.996948,841.777649 366.678070,820.081238 
	C363.483337,804.031921 363.919708,787.609497 363.830078,771.317871 
	C363.789307,763.899719 368.985229,759.640564 376.461182,759.629639 
	C397.793060,759.598572 419.125244,759.532715 440.456543,759.634766 
	C444.282959,759.653076 445.834045,758.459534 445.704102,754.454468 
	C445.460999,746.963074 445.639618,739.457764 445.656219,731.958252 
	C445.688568,717.356873 451.965790,710.766907 467.696655,709.789795 
M418.961975,529.804138 
	C421.709930,537.653381 424.558533,545.469116 427.185364,553.358643 
	C433.112457,571.160583 441.584198,587.418579 455.663910,600.219482 
	C475.450012,618.208435 498.694458,627.477234 525.314819,623.183350 
	C551.845581,618.903931 571.756836,602.975342 586.643433,581.166626 
	C596.483032,566.751831 601.224121,549.847412 606.973572,533.526489 
	C608.390930,529.502930 610.301392,526.091187 614.831665,525.409119 
	C622.902893,524.194153 626.615662,518.453613 629.265137,511.734406 
	C632.440186,503.682251 634.974243,495.410889 636.849976,486.943665 
	C637.821960,482.556061 638.985657,478.210449 638.630432,473.651398 
	C638.152405,467.515564 634.945435,462.547028 630.737732,461.429565 
	C621.081116,458.864960 619.558716,456.931885 619.643982,446.846161 
	C619.802979,428.038757 620.067749,409.249054 616.671387,390.609894 
	C610.583130,357.196960 593.481445,331.900177 561.884216,318.161346 
	C535.051880,306.494354 507.189331,304.591492 478.957428,313.216644 
	C445.873993,323.324005 423.317657,344.160950 413.124664,377.745361 
	C408.437256,393.189728 407.168488,409.055237 406.396942,425.008484 
	C406.034821,432.495331 406.681366,439.972870 407.119843,447.456909 
	C407.559540,454.961884 404.660553,458.836304 398.323212,460.659637 
	C389.861237,463.094269 387.843262,465.476227 388.268616,474.511078 
	C388.976685,489.550079 393.913971,503.489410 400.635529,516.779968 
	C402.778992,521.018311 406.562531,523.881714 411.481812,524.928406 
	C414.266418,525.521057 416.979218,526.438965 418.961975,529.804138 
M588.500000,832.694153 
	C596.495239,832.697021 604.490601,832.715515 612.485779,832.699036 
	C623.979736,832.675232 632.265076,826.929871 635.588013,815.819153 
	C638.118591,807.357727 637.832336,798.519897 637.795776,789.250000 
	C635.414856,789.250000 633.450684,789.249817 631.486450,789.250000 
	C577.352356,789.255249 523.218201,789.260620 469.084106,789.265808 
	C443.932556,789.268188 418.780334,789.365784 393.630066,789.186768 
	C388.949921,789.153442 387.627899,790.912659 388.605408,795.116455 
	C389.483643,798.893372 389.197968,802.737488 389.371613,806.558167 
	C390.119568,823.017395 400.407532,833.042847 416.104858,832.900391 
	C473.232483,832.381836 530.367676,832.694397 588.500000,832.694153 
M537.496765,759.582092 
	C542.661499,759.555786 547.826416,759.547852 552.990906,759.496460 
	C556.245850,759.464050 557.766479,757.975403 557.641785,754.524048 
	C557.449402,749.199097 557.505859,743.860046 557.628784,738.530945 
	C557.694641,735.673645 556.839172,734.224121 553.690918,734.231018 
	C526.864746,734.290100 500.038300,734.289001 473.212158,734.219055 
	C470.026917,734.210754 469.244598,735.704590 469.311676,738.534363 
	C469.434082,743.696777 469.602234,748.880432 469.273102,754.024597 
	C468.987305,758.491882 470.685822,759.714844 475.014740,759.673828 
	C495.507568,759.479492 516.003235,759.582703 537.496765,759.582092 
z"/>
<path fill="#000000" opacity="1.000000" stroke="none" 
	d="
M642.079956,200.214691 
	C629.895020,198.929520 618.182312,197.353775 606.417175,196.504807 
	C574.362122,194.191681 542.278442,191.971695 510.119385,192.470032 
	C477.991486,192.967865 445.896912,194.302719 413.859589,197.152908 
	C369.395966,201.108627 325.453217,208.249908 281.891479,217.789505 
	C259.078796,222.785278 246.727966,238.574097 246.404343,262.025879 
	C246.339966,266.691010 246.409210,271.357910 246.397980,276.023926 
	C246.377762,284.431335 242.161331,288.860138 233.600662,289.242584 
	C229.609009,289.420929 225.597122,289.418915 221.605606,289.243622 
	C218.303574,289.098572 217.037781,290.483398 217.323792,293.678406 
	C217.456970,295.166382 217.348663,296.675995 217.348618,298.175812 
	C217.345535,405.661865 217.343033,513.147949 217.338013,620.633972 
	C217.337524,631.190308 212.495941,636.093201 201.818649,636.170166 
	C191.653870,636.243530 181.487534,636.243835 171.322906,636.156616 
	C160.343933,636.062500 155.632996,631.223633 155.632660,620.238525 
	C155.629440,512.252563 155.628296,404.266571 155.627502,296.280579 
	C155.627441,289.312988 155.630981,289.312988 148.454300,289.291565 
	C144.621521,289.280121 140.783401,289.394226 136.957001,289.232117 
	C127.783775,288.843353 122.222168,282.838104 122.526604,273.688507 
	C123.135094,255.399857 124.919548,237.196213 126.525070,218.978714 
	C127.429787,208.713089 127.433914,198.313049 129.099640,188.180023 
	C133.692429,160.240921 153.450943,139.505447 181.455307,133.812561 
	C210.090302,127.991493 238.831360,122.699997 267.780762,118.478104 
	C294.428345,114.591904 321.156281,111.522247 347.931976,108.930550 
	C373.414886,106.463974 398.965607,104.774651 424.558380,103.456406 
	C468.525574,101.191734 512.494568,101.437050 556.466980,101.776169 
	C582.256836,101.975052 608.002930,103.895386 633.754700,105.463623 
	C654.020935,106.697823 674.195312,108.762039 694.363770,110.864464 
	C717.489136,113.275139 740.557739,116.202515 763.595093,119.449265 
	C791.596619,123.395638 819.287781,128.949066 846.912109,134.738297 
	C876.957581,141.034927 897.459656,167.417511 898.452393,197.973099 
	C898.926697,212.571106 900.783020,227.122528 901.945984,241.700439 
	C902.778992,252.141769 903.762268,262.581207 904.194885,273.041473 
	C904.601624,282.874695 898.501526,288.971436 888.612732,289.259430 
	C884.116882,289.390381 879.612854,289.379425 875.115784,289.281433 
	C872.341675,289.220978 871.178528,290.361298 871.274963,293.139526 
	C871.390503,296.468292 871.294312,299.804321 871.294250,303.137207 
	C871.293335,408.623505 871.292664,514.109802 871.293152,619.596130 
	C871.293213,630.788330 866.099060,636.101379 854.855957,636.188110 
	C844.691223,636.266541 834.524780,636.265625 824.360291,636.170105 
	C813.295532,636.066162 808.676575,631.332336 808.676208,620.280334 
	C808.672974,512.460999 808.676025,404.641663 808.675415,296.822327 
	C808.675354,289.311340 808.656006,289.024933 801.008545,289.356384 
	C784.751160,290.061066 778.386414,286.290680 779.623047,268.031464 
	C780.538757,254.511414 778.053833,241.950851 768.670654,231.274872 
	C760.783081,222.300690 750.292236,219.049408 739.338257,216.494751 
	C712.605347,210.260178 685.551453,205.836105 658.349976,202.261322 
	C653.079224,201.568634 647.802307,200.922974 642.079956,200.214691 
M196.000198,156.662308 
	C194.691803,156.895889 193.386322,157.147522 192.074570,157.360367 
	C168.480835,161.189026 156.258972,173.648239 153.101303,197.270325 
	C152.441147,202.208969 152.099762,207.194321 151.730362,212.166977 
	C150.572556,227.753128 149.492889,243.345078 148.330688,258.930878 
	C148.095062,262.090820 148.762283,263.925354 152.563477,263.903564 
	C174.224686,263.779236 195.887146,263.772522 217.548477,263.875519 
	C221.074203,263.892273 222.351822,262.230682 222.512268,259.132172 
	C222.675827,255.973358 222.371857,252.743820 222.915176,249.658401 
	C227.932098,221.167831 244.229904,202.445480 272.133636,194.607758 
	C290.046722,189.576233 308.416443,186.437744 326.727386,183.092087 
	C356.659637,177.623032 386.796478,173.713303 417.059479,170.818359 
	C444.245331,168.217758 471.554108,167.574677 498.843201,166.963364 
	C525.331848,166.369980 551.801453,167.549637 578.251831,168.802643 
	C592.535217,169.479263 606.831909,170.427307 621.040710,171.995056 
	C640.852905,174.181091 660.639465,176.727615 680.344360,179.728012 
	C706.301331,183.680374 732.159424,188.289154 757.405884,195.711700 
	C769.725098,199.333618 779.923950,206.272034 788.194397,216.100098 
	C798.723755,228.612610 803.128113,243.384857 804.085632,259.367767 
	C804.293762,262.841766 805.630798,263.894836 808.983276,263.879700 
	C830.644653,263.781769 852.307007,263.786530 873.968384,263.894409 
	C877.730103,263.913116 878.665710,262.832520 878.312500,258.899536 
	C876.542114,239.185074 874.820068,219.453400 873.769165,199.691193 
	C872.874390,182.865906 865.309021,170.619034 850.836304,162.431732 
	C844.630310,158.921036 837.610413,158.188614 830.763306,156.815704 
	C799.958801,150.639297 768.958740,145.591431 737.821594,141.530960 
	C707.663574,137.598190 677.407227,134.504288 647.073181,132.041977 
	C615.524902,129.481094 583.950928,127.791878 552.326294,127.449638 
	C513.015198,127.024239 473.688721,126.747566 434.393738,128.418671 
	C416.103271,129.196518 397.822418,130.321960 379.560577,131.619080 
	C359.490814,133.044586 339.455536,134.876770 319.464722,137.250427 
	C299.985321,139.563370 280.474915,141.654984 261.133301,144.930740 
	C239.666992,148.566345 218.269394,152.607422 196.000198,156.662308 
M192.656174,503.500061 
	C192.655457,434.672882 192.654953,365.845673 192.652542,297.018494 
	C192.652481,295.518799 192.653473,294.018433 192.611679,292.519592 
	C192.578613,291.333984 192.411224,290.254120 191.149475,289.594818 
	C185.975952,286.891510 180.312347,289.999298 180.312439,295.586945 
	C180.314224,398.077698 180.316376,500.568451 180.321152,603.059204 
	C180.321228,604.725342 180.323349,606.392639 180.384827,608.057190 
	C180.422897,609.088318 180.765015,609.931091 181.809128,610.473083 
	C187.210068,613.276855 192.659286,610.048096 192.659637,603.991150 
	C192.661575,570.827454 192.657623,537.663757 192.656174,503.500061 
M833.424561,347.528381 
	C833.427002,398.680145 833.428284,449.831879 833.432312,500.983643 
	C833.434204,524.302612 833.447876,547.621521 833.443970,570.940491 
	C833.442017,582.603088 833.393311,594.265808 833.416504,605.928284 
	C833.419983,607.673706 832.946777,609.673279 835.272827,610.601013 
	C841.449341,613.064453 845.806763,610.188904 845.807068,603.590027 
	C845.810242,530.611145 845.812927,457.632294 845.812256,384.653412 
	C845.812012,354.495483 845.685791,324.336731 845.900574,294.180359 
	C845.942261,288.327820 842.366638,289.478149 838.986023,289.271820 
	C835.449707,289.055969 833.192078,289.763062 833.451904,294.089508 
	C834.501648,311.569275 833.710083,329.056305 833.424561,347.528381 
z"/>
</svg>