<svg version="1.1" id="Layer_1" xmlns="http://www.w3.org/2000/svg" xmlns:xlink="http://www.w3.org/1999/xlink" x="0px" y="0px"
	 width="100%" viewBox="0 0 1024 1024" enable-background="new 0 0 1024 1024" xml:space="preserve">
<path fill="#000000" opacity="1.000000" stroke="none" 
	d="
M126.762039,626.000000 
	C126.750565,467.522705 126.742081,309.545380 126.726006,151.568085 
	C126.723312,125.144119 146.751251,102.623940 172.702896,99.502716 
	C177.693161,98.902527 182.635910,98.693314 187.618271,98.693169 
	C406.086792,98.686646 624.555420,98.640617 843.023804,98.773041 
	C865.203247,98.786491 882.554138,108.254494 893.309143,128.183807 
	C897.388428,135.742722 899.286865,144.031403 899.287598,152.652481 
	C899.305359,372.787598 899.307983,592.922668 899.298889,813.057800 
	C899.297729,841.174316 881.803467,862.909302 854.368286,868.753174 
	C848.334351,870.038452 842.127563,869.993225 835.962830,869.992615 
	C779.304382,869.987000 722.645935,869.986389 665.987488,869.977783 
	C658.347656,869.976624 658.347290,869.959839 658.347717,877.670654 
	C658.348022,882.503296 658.533325,887.345154 658.291931,892.165649 
	C658.100952,895.979248 659.745178,897.002869 663.302246,897.042114 
	C675.125122,897.172485 686.957581,896.590332 698.773193,897.588562 
	C705.402954,898.148682 709.689636,901.787231 710.297974,907.803772 
	C710.930908,914.063782 706.978943,919.746338 700.863098,921.248169 
	C698.112427,921.923706 695.319824,922.225952 692.458923,922.225281 
	C573.309387,922.197815 454.159851,922.204468 335.010315,922.214905 
	C330.651245,922.215271 326.338806,921.839661 322.306152,920.103027 
	C317.332367,917.961182 314.456818,912.325745 315.402832,906.995850 
	C316.483734,900.906067 319.486725,898.247742 325.859955,897.605408 
	C337.168152,896.465393 348.504822,897.217285 359.827179,897.062866 
	C367.644226,896.956299 367.649200,897.061035 367.649170,889.036133 
	C367.649170,884.036865 367.556915,879.035889 367.661072,874.038940 
	C367.718048,871.305847 366.614136,869.993225 363.872467,870.033875 
	C362.373718,870.056091 360.873840,869.983215 359.374451,869.983215 
	C304.049164,869.981750 248.723877,869.989563 193.398590,869.979126 
	C185.411133,869.977600 177.375031,870.114685 169.548965,868.299561 
	C143.953293,862.363159 126.770256,840.723450 126.757706,814.465149 
	C126.727768,751.810120 126.757088,689.155029 126.762039,626.000000 
M874.016174,210.500000 
	C873.934998,191.336319 874.152832,172.165314 873.683594,153.011139 
	C873.264343,135.902817 860.825867,124.368729 843.626770,124.368195 
	C622.969727,124.361328 402.312683,124.365692 181.655655,124.387894 
	C179.671051,124.388092 177.639526,124.447006 175.709351,124.854607 
	C161.076538,127.944572 152.374741,137.955490 152.146729,152.915100 
	C151.699860,182.230667 151.460846,211.552002 151.445267,240.871109 
	C151.361221,399.030579 151.267273,557.190247 151.433899,715.349548 
	C151.469513,749.166321 150.882736,782.985229 151.954071,816.813721 
	C152.369965,829.946106 166.021744,844.918518 181.654282,844.801880 
	C225.815643,844.472534 269.981018,844.675903 314.144806,844.676025 
	C490.302765,844.676514 666.460876,844.597107 842.618530,844.836487 
	C856.895386,844.855835 874.204895,833.783813 874.106506,813.920044 
	C873.907593,773.768066 873.751221,733.610718 874.523071,693.451477 
	C875.080017,664.472412 874.215515,635.468323 874.144104,606.481384 
	C873.819763,474.821625 874.006958,343.160583 874.016174,210.500000 
M601.500000,870.029419 
	C532.838440,869.989014 464.176788,869.975281 395.515411,869.829773 
	C392.051758,869.822449 391.215149,871.030884 391.305786,874.158875 
	C391.469879,879.820374 391.639465,885.509583 391.259705,891.150391 
	C390.940613,895.890137 392.785858,897.094727 397.272919,897.090576 
	C475.100403,897.019226 552.928101,897.060364 630.755493,897.190491 
	C634.031616,897.195923 634.741882,895.985657 634.683594,893.118164 
	C634.561768,887.121094 634.453979,881.111084 634.719788,875.123230 
	C634.896973,871.133240 633.328918,869.830688 629.496887,869.908875 
	C620.500793,870.092590 611.499329,870.007080 601.500000,870.029419 
z"/>
<path fill="#000000" opacity="1.000000" stroke="none" 
	d="
M192.654236,350.999908 
	C192.656189,292.508301 192.654770,234.516708 192.663452,176.525116 
	C192.665344,163.926147 196.900314,159.657883 209.349411,159.657761 
	C411.320129,159.655853 613.290894,159.654831 815.261597,159.654999 
	C828.983398,159.655014 833.347534,164.072556 833.347595,177.950150 
	C833.348267,384.920166 833.348450,591.890137 833.348328,798.860168 
	C833.348328,810.119690 829.221985,814.358582 818.159363,814.359131 
	C614.855530,814.370361 411.551636,814.370972 208.247787,814.398071 
	C203.116257,814.398743 198.188431,814.082703 194.811005,809.468811 
	C192.606567,806.457397 192.629028,802.971985 192.629654,799.433777 
	C192.656281,650.122498 192.653564,500.811188 192.654236,350.999908 
M435.570831,279.480652 
	C439.925171,280.921722 444.279541,282.362823 448.867920,283.881348 
	C452.059326,272.718079 454.358551,262.068848 453.612152,250.967682 
	C453.333527,246.823761 451.870026,243.870697 447.313202,242.627441 
	C442.036133,241.187683 436.946014,239.045609 431.805634,237.125763 
	C424.093536,234.245422 420.766083,227.817627 423.124969,220.512421 
	C425.294983,213.792099 432.641205,210.489182 440.225677,212.647522 
	C443.839935,213.676025 447.154083,215.787888 451.648071,216.009933 
	C451.648071,207.261047 451.428833,198.795029 451.735962,190.348129 
	C451.901703,185.789078 450.487885,184.321655 445.811920,184.329041 
	C371.828888,184.445770 297.845490,184.434723 223.862534,184.283783 
	C218.962509,184.273788 217.242935,185.442001 217.246201,190.655228 
	C217.369965,388.277161 217.364471,585.899109 217.260666,783.521057 
	C217.258209,788.180786 218.347473,789.851746 223.316238,789.835510 
	C273.970886,789.670288 324.626312,789.750488 375.281494,789.703125 
	C377.157196,789.701416 379.248077,790.364136 381.249481,788.644470 
	C380.305054,787.057251 379.462189,785.455933 378.449951,783.969971 
	C372.412872,775.107300 367.691376,765.576599 364.214172,755.456482 
	C361.114777,746.436035 359.271027,737.250000 360.531921,727.570984 
	C361.942322,716.744263 359.215088,707.757507 349.495728,701.128540 
	C341.183044,695.458923 335.571838,687.278259 333.203461,677.311829 
	C331.695435,670.966003 331.861237,664.408203 331.805939,657.928711 
	C331.725830,648.538391 328.052490,640.911255 321.427826,634.422485 
	C316.194763,629.296692 310.679901,624.338745 306.176971,618.609314 
	C291.445282,599.864990 284.307617,578.570129 285.610901,554.529358 
	C287.065308,527.700195 298.698151,507.061127 322.290405,493.818939 
	C341.100708,483.260803 361.488007,482.686890 381.926208,486.886383 
	C406.009247,491.834808 424.312012,505.800415 436.849487,526.747803 
	C439.941101,531.913208 443.126984,533.204651 448.432861,532.511169 
	C448.837494,528.795898 447.897736,525.320557 447.983765,521.944458 
	C448.123566,516.454590 445.010620,514.814758 440.832062,513.340149 
	C435.975616,511.626312 431.083588,509.909424 426.732574,507.057861 
	C420.639832,503.064880 418.364166,496.291901 420.969666,490.176208 
	C423.407440,484.454071 430.019104,481.455902 436.913910,483.018463 
	C439.298981,483.559021 441.644897,484.272186 444.286896,484.981171 
	C445.294983,476.025513 447.159851,467.545471 446.603302,458.876740 
	C446.186951,452.391357 444.070160,446.916260 437.072845,444.566406 
	C432.190430,442.926788 427.421356,440.919098 422.684998,438.882111 
	C415.292145,435.702576 412.313354,429.988953 414.467560,423.512177 
	C416.773529,416.579041 423.203339,413.242554 430.844177,415.189301 
	C434.060059,416.008698 437.181976,417.193176 440.356812,418.178864 
	C442.168732,418.741394 444.126038,419.359589 444.577118,416.554779 
	C446.078278,407.219391 448.318176,397.958130 447.613098,388.385986 
	C447.100037,381.420258 444.075073,376.436462 436.971558,374.365112 
	C432.347504,373.016785 427.828552,371.304199 423.274414,369.720703 
	C414.936615,366.821716 410.880280,360.152893 413.039948,352.943085 
	C415.332123,345.290955 422.195801,342.264740 431.156891,344.902557 
	C436.044525,346.341278 440.706940,348.581543 446.187744,349.401245 
	C447.633759,340.321533 449.038391,331.519135 450.432037,322.714996 
	C450.535828,322.059509 450.592804,321.392700 450.617554,320.729156 
	C450.850952,314.468628 449.288940,312.133606 443.345886,309.837128 
	C437.604462,307.618591 431.861298,305.404602 426.120422,303.184784 
	C422.902252,301.940399 420.309113,300.031830 418.859497,296.744690 
	C416.765015,291.995300 417.547821,287.430756 420.431549,283.507660 
	C423.976471,278.685120 429.129333,277.763916 435.570831,279.480652 
M808.993164,713.500000 
	C808.980896,684.004089 808.963501,654.508240 808.957153,625.012329 
	C808.926086,480.366425 808.900574,335.720551 808.860413,191.074646 
	C808.858582,184.389114 808.801758,184.385590 802.336365,184.386429 
	C729.513306,184.395905 656.690247,184.405273 583.867188,184.423096 
	C581.702087,184.423630 579.534973,184.596664 577.372375,184.544632 
	C575.045227,184.488647 574.084045,185.498444 574.097107,187.825043 
	C574.149414,197.119324 574.118713,206.414047 574.118713,216.167374 
	C578.493958,214.776566 582.544312,213.338623 586.678772,212.207886 
	C593.929504,210.224808 600.374573,213.564819 602.736877,220.334167 
	C604.941772,226.652405 601.861328,233.504791 595.261780,236.325241 
	C590.218506,238.480560 585.153015,240.815445 579.861633,242.097137 
	C573.906738,243.539551 572.473694,247.254868 572.313843,252.573868 
	C572.020386,262.341156 574.800964,271.631226 576.404968,281.105164 
	C576.838562,283.666382 578.459839,283.801270 580.492065,283.069824 
	C584.249512,281.717468 587.984131,280.295807 591.772400,279.035645 
	C599.589050,276.435516 605.833557,279.126129 608.459778,286.130280 
	C611.132324,293.257874 608.302979,299.210693 600.575745,302.464600 
	C594.597778,304.981934 588.658630,307.642975 582.529419,309.733429 
	C577.753906,311.362152 576.233154,314.430359 576.132263,319.143280 
	C575.917114,329.197754 578.521301,338.848969 579.728821,349.354431 
	C585.580200,347.574524 591.049072,345.776520 596.593567,344.254120 
	C606.320129,341.583496 613.653748,347.411774 613.342102,357.410278 
	C613.141235,363.854553 609.160706,367.277039 603.643188,369.339111 
	C598.191467,371.376587 592.686401,373.273499 587.185059,375.175049 
	C582.706543,376.723083 580.161255,379.632782 579.166016,384.426056 
	C576.752380,396.050018 580.042358,407.039673 581.874939,418.452728 
	C586.536682,418.102661 590.321106,416.290253 594.288147,415.228394 
	C602.254456,413.096069 609.081970,416.340332 611.237000,423.316193 
	C613.396790,430.307648 610.056519,436.291809 602.307800,439.298950 
	C598.120117,440.924103 593.968384,442.653992 589.727905,444.127930 
	C584.514038,445.940155 581.520691,449.612305 580.218445,454.809967 
	C577.654785,465.042053 581.862488,474.672821 581.980835,484.337708 
	C584.311462,484.944885 585.501892,484.223541 586.785461,483.930664 
	C595.841248,481.864410 602.437378,484.852264 604.792114,492.010223 
	C607.350464,499.786804 603.684692,506.343597 594.744324,509.862274 
	C590.721008,511.445770 586.643127,512.890686 582.614136,514.460449 
	C581.071350,515.061462 579.124451,515.612732 578.789429,517.383484 
	C577.819397,522.510925 576.350952,527.671753 577.942688,532.941650 
	C585.686096,532.337036 585.968506,532.121338 588.227661,528.200256 
	C598.782471,509.880646 614.096069,496.998138 633.844421,489.760742 
	C647.617126,484.713318 661.992737,483.855530 676.602722,485.575623 
	C696.567505,487.926270 713.608093,496.034546 725.555420,512.259216 
	C744.583740,538.100220 744.223450,566.420105 733.566833,595.307007 
	C728.705627,608.484070 720.527405,619.569031 710.085938,629.018188 
	C700.241394,637.927124 693.097168,648.107300 694.255371,662.410156 
	C695.622437,679.290771 688.808472,692.660828 675.268921,702.416077 
	C668.107727,707.575745 665.425354,714.114319 666.101013,722.622925 
	C666.708313,730.270874 666.422180,737.893799 664.695190,745.439697 
	C661.454285,759.600098 654.818726,772.216736 647.320435,784.472107 
	C646.426025,785.934082 644.735291,787.156372 645.334106,789.449768 
	C646.336731,789.534241 647.318176,789.689148 648.299622,789.689392 
	C700.125610,789.703735 751.951660,789.665283 803.777405,789.783997 
	C807.868713,789.793396 808.885864,788.228638 808.878174,784.488953 
	C808.830261,761.159485 808.938965,737.829712 808.993164,713.500000 
M393.294861,762.244934 
	C395.355194,765.470520 397.156311,768.901306 399.519806,771.886902 
	C411.093292,786.506714 425.793884,793.858521 444.615021,789.466553 
	C456.373566,786.722656 465.419800,779.275330 473.132874,770.219971 
	C477.881866,764.644470 482.475952,758.937195 487.207092,753.346191 
	C490.096497,749.931641 493.822845,747.522766 498.176178,746.835754 
	C505.755157,745.639648 513.437439,745.870422 521.106201,745.996704 
	C531.098511,746.161316 538.392517,750.712219 544.174255,758.657532 
	C549.561829,766.061218 555.242859,773.306519 562.334473,779.219482 
	C572.613220,787.790039 584.162415,792.864868 597.789917,789.915955 
	C620.630615,784.973389 641.639587,758.209045 641.729919,734.684937 
	C641.757324,727.546448 641.603394,720.434448 642.350891,713.253967 
	C643.681824,700.470886 650.154846,691.154663 660.046265,683.861328 
	C666.355530,679.209167 670.472168,673.473389 670.266968,665.513733 
	C669.776428,646.481140 674.801697,629.743652 689.271301,616.519043 
	C694.921509,611.355042 700.367859,605.969116 704.578491,599.456055 
	C714.276001,584.455750 717.477295,568.073792 715.699707,550.442627 
	C714.540283,538.942749 709.853333,529.330139 701.161682,521.832764 
	C692.551025,514.405273 682.303589,511.133972 671.013794,510.053009 
	C646.573059,507.712921 627.125671,516.672119 611.882690,535.376953 
	C607.840088,540.337585 606.366516,546.063782 608.345581,552.681519 
	C610.485657,559.837219 611.236328,567.256226 610.713867,574.813416 
	C609.888855,586.746826 605.910156,597.871399 602.285339,609.077942 
	C601.052612,612.889099 601.392700,614.852051 605.746338,615.802551 
	C610.690613,616.882019 614.918152,619.572632 618.501892,623.271118 
	C630.492188,635.645325 632.726440,654.102844 624.083252,671.504028 
	C616.543640,686.683411 604.488708,697.881836 591.174072,707.812744 
	C576.552429,718.718445 561.259521,728.427612 542.893127,731.863953 
	C528.685852,734.522095 514.321899,732.917969 500.032715,733.363098 
	C491.624695,733.625000 483.450378,732.181396 475.479065,729.763733 
	C454.592621,723.429138 437.427399,710.874390 421.484711,696.532166 
	C410.697601,686.828003 402.149841,675.557129 398.234528,661.136475 
	C392.988281,641.813782 403.196045,619.310120 422.283112,614.861389 
	C423.041870,614.684509 423.733063,614.217834 424.478882,613.875549 
	C424.578278,610.564331 423.141296,607.859436 422.214508,605.072998 
	C416.803528,588.805786 412.531586,572.154114 417.089905,555.208069 
	C419.966919,544.512207 416.471680,537.101013 409.574707,530.100647 
	C393.977600,514.269653 375.267944,507.471924 353.014648,510.227173 
	C321.733185,514.100220 309.133606,534.721680 309.628693,560.904846 
	C310.013641,581.264282 317.469940,599.461609 333.302124,613.017334 
	C349.881073,627.212402 356.821594,645.169556 356.272308,666.490967 
	C356.103455,673.045166 358.544189,678.320801 363.847168,681.923279 
	C379.257416,692.391724 385.546936,707.172607 384.254089,725.279907 
	C383.315918,738.419067 386.645569,750.305237 393.294861,762.244934 
M551.203918,650.729980 
	C561.570190,643.765564 568.236816,633.945557 572.367126,622.409424 
	C578.237549,606.013062 585.201416,589.897034 586.922729,572.305115 
	C587.390564,567.522949 587.896240,562.147278 585.005859,558.321716 
	C582.782837,555.379578 578.441345,558.461182 575.060974,558.201477 
	C564.703430,557.405762 556.181091,556.641785 554.154968,541.115845 
	C553.440308,535.639465 554.040771,529.991455 554.040771,524.215332 
	C526.213867,527.484558 499.572479,527.379639 472.347321,524.033936 
	C472.347321,527.721191 472.325134,531.012695 472.353394,534.303772 
	C472.383484,537.807739 472.247711,541.273743 471.439728,544.722046 
	C469.762146,551.881348 465.468597,555.735046 458.417725,557.477234 
	C452.541321,558.929138 446.884766,556.700684 440.874939,557.284302 
	C438.571838,564.248474 438.418701,571.484497 439.954102,578.401306 
	C443.632385,594.971069 449.102936,611.029358 455.641876,626.703979 
	C460.924042,639.366028 469.582642,648.845154 482.076782,654.745911 
	C493.687592,660.229553 502.956482,667.612549 505.024872,681.502747 
	C505.656464,685.744141 508.596252,689.649719 513.398804,689.382568 
	C518.052551,689.123596 520.178711,685.065918 521.501831,680.907776 
	C521.700500,680.283447 521.681152,679.590637 521.771057,678.930664 
	C522.910645,670.569824 527.567261,664.492981 534.508728,660.171631 
	C539.728882,656.921753 545.241211,654.141235 551.203918,650.729980 
M485.933685,500.622070 
	C499.563507,501.686127 513.229797,502.104309 526.873047,501.543762 
	C535.458923,501.191010 544.196777,501.261200 552.497681,498.323456 
	C556.901917,496.764801 559.295837,494.294861 558.458069,488.983398 
	C556.185181,474.574646 553.313965,460.103973 558.887024,444.650696 
	C543.433655,449.139557 528.563904,449.372925 513.621338,449.443207 
	C498.500458,449.514313 483.498962,448.898560 468.342468,444.729797 
	C468.688782,450.802856 470.314240,455.695648 470.480255,460.860016 
	C470.803619,470.916107 468.943970,480.739655 468.206512,490.672913 
	C467.917206,494.569702 469.475159,496.439819 472.920807,497.718628 
	C476.865143,499.182495 481.011353,499.557831 485.933685,500.622070 
M506.515686,375.334656 
	C493.592316,375.397156 480.857422,373.709198 467.735718,370.404694 
	C468.930756,375.578522 471.118530,379.514557 471.441376,384.069153 
	C472.176056,394.434082 471.144928,404.635406 469.132782,414.736237 
	C468.504059,417.892395 469.582367,419.538391 472.028107,420.719971 
	C473.803192,421.577606 475.694366,422.395081 477.619110,422.712067 
	C498.893646,426.215637 520.253967,426.616028 541.662231,424.126923 
	C545.607239,423.668274 549.532166,423.106628 553.250488,421.428009 
	C556.830444,419.811859 557.969543,417.714935 557.223755,413.590302 
	C554.597412,399.064514 551.882812,384.427917 559.513489,369.803528 
	C542.063538,374.854065 524.842346,375.651428 506.515686,375.334656 
M532.191284,306.249542 
	C511.722809,306.215424 491.142670,308.016693 470.646729,301.693329 
	C471.726410,305.079742 472.660797,307.571655 473.313507,310.135254 
	C475.818970,319.976044 473.842010,329.627716 471.703430,339.199738 
	C470.687653,343.746216 471.783386,346.686340 476.365021,348.037537 
	C478.117004,348.554230 479.839355,349.289490 481.629181,349.541016 
	C496.002167,351.560760 510.489197,352.326141 524.939453,351.438873 
	C532.841492,350.953613 540.938965,351.138489 548.649780,348.622650 
	C554.350525,346.762573 555.663269,344.812225 554.535950,339.250793 
	C552.014893,326.813416 551.065674,314.443542 556.143433,301.924835 
	C548.211670,303.901306 540.682800,305.118195 532.191284,306.249542 
M548.167603,240.203262 
	C524.551880,243.503235 500.896362,243.162369 476.958466,240.553940 
	C477.237946,249.743362 477.681580,258.487183 476.532501,267.265411 
	C476.061462,270.863525 472.500793,275.022675 476.350586,278.314789 
	C479.426971,280.945526 483.901764,280.553253 487.762909,281.466797 
	C488.718323,281.692871 489.751068,281.634064 490.748322,281.634766 
	C505.574402,281.645355 520.401550,281.742004 535.225952,281.585632 
	C539.685547,281.538574 544.197266,281.047424 548.376465,279.198822 
	C550.051636,278.457794 551.938049,277.616150 551.363708,275.237305 
	C548.642334,263.963898 548.312256,252.566833 549.401245,241.078629 
	C549.423340,240.845093 549.029846,240.572128 548.167603,240.203262 
M543.832520,217.527603 
	C549.856018,217.578568 551.093872,214.229340 550.702026,208.850555 
	C550.255676,202.724960 550.392395,196.532104 550.673096,190.386642 
	C550.876465,185.934097 549.512756,184.263550 544.773010,184.315720 
	C523.637878,184.548401 502.498749,184.405823 481.361176,184.445419 
	C479.592560,184.448746 477.691711,183.980942 475.414612,185.746216 
	C475.414612,193.893372 475.414612,202.514587 475.414581,211.135803 
	C475.414581,214.138977 476.367981,216.242477 479.807709,216.651215 
	C487.882202,217.610687 495.925629,218.754593 504.096191,218.672470 
	C517.062927,218.542130 530.044006,219.048706 543.832520,217.527603 
M540.174255,707.528381 
	C561.553711,702.076782 578.287903,689.117004 593.570740,674.031616 
	C598.670410,668.997864 602.416077,662.818237 604.165710,655.661560 
	C606.300598,646.928894 603.666321,640.592285 597.115417,638.131836 
	C594.259460,637.059143 592.508545,637.515137 591.002930,640.272583 
	C581.566956,657.553894 568.737183,671.235413 549.982361,678.576599 
	C547.191284,679.669189 545.718262,681.714417 544.999817,684.843994 
	C543.026794,693.438599 539.131104,701.060669 532.151611,706.808228 
	C531.717773,707.165527 530.882080,707.514893 531.493713,708.296997 
	C534.280945,709.339905 536.752808,707.634399 540.174255,707.528381 
M478.100037,705.396851 
	C483.431061,706.961487 488.712158,708.828552 495.537170,708.359924 
	C488.084320,702.195374 483.300903,695.268311 481.641815,686.688416 
	C480.667938,681.651794 477.845428,678.961060 473.326050,677.149963 
	C456.283783,670.320618 444.618103,657.671692 435.877411,641.972656 
	C432.845581,636.527222 428.973450,635.968933 424.623413,640.614685 
	C422.649109,642.723206 421.606964,645.321899 421.333160,648.263245 
	C420.767548,654.339417 422.340820,659.873169 425.722595,664.815613 
	C438.653168,683.713379 456.864960,695.895203 478.100037,705.396851 
M505.503479,789.655823 
	C515.901123,789.655823 526.298767,789.655823 537.887085,789.655823 
	C535.225281,786.228760 533.093811,784.080811 531.665588,781.537842 
	C526.629883,772.571472 519.018738,769.594055 509.188873,771.204956 
	C506.944916,771.572632 504.275543,770.549500 502.543915,772.552063 
	C497.940399,777.875732 493.519073,783.356873 488.295868,789.654968 
	C494.578430,789.654968 499.542175,789.654968 505.503479,789.655823 
z"/>
<path fill="#000000" opacity="1.000000" stroke="none" 
	d="
M422.415100,772.941772 
	C408.102478,764.965149 402.622528,751.934814 401.917969,737.061951 
	C401.245209,722.860474 415.215332,714.358948 430.672150,719.289246 
	C442.745667,723.140442 453.116302,730.432800 461.707703,739.608154 
	C469.576813,748.012146 465.945862,762.235718 454.693176,769.688965 
	C444.701111,776.307251 433.971588,777.238342 422.415100,772.941772 
M427.186829,745.376892 
	C429.944977,752.373901 433.441010,754.073303 438.909210,750.943970 
	C437.126831,748.634949 434.428040,747.683716 432.067596,746.344543 
	C430.579254,745.500122 429.285645,743.259766 427.186829,745.376892 
z"/>
<path fill="#000000" opacity="1.000000" stroke="none" 
	d="
M582.544556,725.470947 
	C590.645264,720.038696 598.869507,716.559570 608.581604,718.574890 
	C618.615967,720.657043 624.742432,728.404785 623.900757,738.707092 
	C623.051453,749.103638 619.341797,758.439636 612.259583,766.234558 
	C600.232605,779.471680 575.672119,778.180420 565.052856,763.793518 
	C559.091797,755.717468 558.078613,743.167480 567.992371,735.769714 
	C572.666016,732.282104 577.405090,728.916321 582.544556,725.470947 
M597.025024,744.680481 
	C593.540100,746.416443 589.888000,747.887390 586.885376,750.837280 
	C589.774475,753.135437 592.573486,753.291565 595.045898,751.028015 
	C596.840576,749.385010 599.303284,747.621155 597.025024,744.680481 
z"/>
<path fill="#000000" opacity="1.000000" stroke="none" 
	d="
M471.018860,609.125183 
	C466.232269,604.078125 465.376068,598.937195 468.217133,593.980164 
	C470.911499,589.279053 475.824493,587.421814 481.961639,588.569580 
	C485.128204,589.161865 488.104462,590.259888 490.728912,591.994507 
	C494.558441,594.525574 497.028900,598.045593 496.106018,602.927063 
	C495.172119,607.866516 491.127258,611.692627 486.200439,612.214233 
	C481.005463,612.764343 475.885193,612.403748 471.018860,609.125183 
z"/>
<path fill="#000000" opacity="1.000000" stroke="none" 
	d="
M534.639038,592.508423 
	C539.619629,589.610168 544.446716,587.502808 550.034790,588.538818 
	C558.107300,590.035400 562.109436,599.401489 557.650269,606.320129 
	C553.401672,612.912048 540.300171,614.673950 534.396423,609.447266 
	C528.556580,604.277161 528.537537,598.684143 534.639038,592.508423 
z"/>
<path fill="#000000" opacity="1.000000" stroke="none" 
	d="
M492.676361,647.024658 
	C484.306030,649.461182 473.477814,642.095642 472.891724,633.977905 
	C472.516846,628.785583 477.390869,623.450562 483.054504,622.853821 
	C488.402954,622.290283 494.603821,626.550659 496.959442,632.407349 
	C499.400452,638.476501 498.256073,642.689880 492.676361,647.024658 
z"/>
<path fill="#000000" opacity="1.000000" stroke="none" 
	d="
M543.677002,645.988525 
	C536.360657,648.911499 532.104736,648.019348 529.477417,643.263916 
	C526.607971,638.070251 528.609314,630.094360 533.854431,625.820496 
	C538.930542,621.684326 545.869141,621.959290 550.033081,626.461731 
	C554.378723,631.160645 553.956848,637.410095 548.815491,642.294373 
	C547.389160,643.649414 545.622192,644.645874 543.677002,645.988525 
z"/>
</svg>