<svg version="1.1" id="Layer_1" xmlns="http://www.w3.org/2000/svg" xmlns:xlink="http://www.w3.org/1999/xlink" x="0px" y="0px"
	 width="100%" viewBox="0 0 1024 1024" enable-background="new 0 0 1024 1024" xml:space="preserve">
<path fill="#000000" opacity="1.000000" stroke="none" 
	d="
M591.000000,884.010315 
	C530.508972,884.021362 470.517975,884.027649 410.526947,884.056213 
	C405.853973,884.058472 401.143219,884.013123 396.633057,882.870972 
	C382.976288,879.412415 375.289612,866.283081 379.200745,852.207703 
	C384.854431,831.861206 390.951996,811.634521 397.123779,791.437195 
	C399.852997,782.505859 406.763458,778.004333 415.649200,776.872864 
	C419.583710,776.371826 420.634674,774.800598 420.718719,771.178833 
	C421.064545,756.272156 421.141266,756.291077 406.202789,756.295654 
	C353.210114,756.311829 300.217407,756.322632 247.224716,756.320007 
	C224.896896,756.318909 208.689514,740.181824 208.685883,717.900513 
	C208.671494,629.579224 208.859451,541.257446 208.624084,452.936798 
	C208.451996,388.360321 226.050690,329.348480 263.484314,276.692383 
	C307.402466,214.914825 366.223755,174.626968 440.076752,156.689804 
	C461.141022,151.573807 482.485382,149.122513 504.191772,148.460327 
	C544.766052,147.222565 584.132690,153.005371 622.140381,167.145264 
	C678.681030,188.179916 724.334595,223.801132 760.374023,271.932373 
	C788.246033,309.155884 805.144287,351.099915 813.302307,396.708557 
	C816.086670,412.274963 817.450439,427.937561 817.423523,443.798676 
	C817.268921,534.786011 817.351318,625.773743 817.345093,716.761353 
	C817.343506,740.746826 801.582520,756.327515 777.455078,756.320618 
	C722.296021,756.304932 667.136902,756.322083 611.977844,756.333252 
	C605.176575,756.334595 605.176636,756.355408 605.115234,763.302612 
	C605.112244,763.635864 605.096436,763.969482 605.106140,764.302368 
	C605.207336,767.793457 604.415833,771.647705 605.645508,774.682556 
	C607.150940,778.397949 611.851135,776.535461 615.029358,777.651001 
	C621.951050,780.080750 627.020203,784.210999 629.180054,791.301147 
	C635.429138,811.815979 641.812561,832.295776 647.632751,852.933289 
	C651.904419,868.080017 641.475769,882.159302 625.963318,883.466675 
	C614.475403,884.434753 602.985474,883.749634 591.000000,884.010315 
M297.514252,636.003235 
	C312.702728,652.379272 329.283691,667.035828 348.716156,678.370239 
	C350.077271,676.242493 349.711334,674.526611 349.630371,672.929077 
	C349.024261,660.964905 351.863312,649.794312 357.409546,639.289734 
	C370.631744,614.246643 383.616241,589.068665 397.396698,564.335205 
	C401.726044,556.564819 401.569092,551.540039 395.562653,544.513062 
	C375.204407,520.695923 363.597961,492.632416 360.954193,461.492706 
	C357.670105,422.810822 366.423767,386.808472 390.277710,355.654694 
	C428.664795,305.520325 479.792633,286.367950 541.722900,296.414276 
	C575.108337,301.830048 603.139832,318.066620 625.694458,343.140778 
	C659.303040,380.503540 672.303833,424.276886 663.881165,473.904938 
	C659.034241,502.463684 646.227112,527.521790 627.427307,549.471985 
	C624.609497,552.762024 624.323547,555.197388 626.418518,559.103088 
	C640.749207,585.819824 654.802795,612.685547 668.900269,639.526978 
	C674.016357,649.267822 676.966614,659.546570 676.419739,670.692017 
	C676.302612,673.080750 675.893127,675.594116 676.817688,677.911621 
	C677.499695,677.911621 677.871338,678.017639 678.134155,677.893494 
	C679.333618,677.326538 680.549988,676.771667 681.675293,676.075134 
	C700.522217,664.410645 717.151611,650.041016 731.757935,633.480469 
	C770.830078,589.180786 793.148376,537.452698 799.847961,478.787201 
	C802.739807,453.464478 802.468140,428.207397 798.378113,403.171631 
	C791.293213,359.804657 775.471008,319.694794 749.247131,284.284058 
	C695.393127,211.563904 623.136353,171.321426 532.815308,164.562286 
	C509.094025,162.787125 485.229553,164.061401 461.738251,168.559662 
	C390.254028,182.247879 330.929321,216.380417 285.776123,273.992462 
	C249.989883,319.652954 229.213211,371.326080 225.551392,429.349518 
	C224.147934,451.588318 225.252823,473.863434 229.165390,495.972595 
	C238.544907,548.974365 260.792755,595.602417 297.514252,636.003235 
M624.537476,526.057617 
	C644.929321,497.018799 652.936646,464.865997 648.794006,429.652008 
	C644.915833,396.686462 630.304077,369.000488 606.307983,346.530212 
	C575.116455,317.322113 537.648193,306.386292 495.483398,311.265778 
	C468.093811,314.435394 443.746552,325.127899 423.223419,343.513611 
	C387.129181,375.848785 372.413513,416.734711 377.587006,464.551178 
	C380.427887,490.808014 391.318481,514.071289 408.018494,534.554749 
	C408.814514,535.531128 409.411194,536.907410 411.266785,536.674622 
	C415.086243,529.373108 418.645599,521.836487 422.860962,514.686523 
	C428.799622,504.613495 437.612091,499.495575 449.662201,499.551941 
	C490.644653,499.743591 531.631165,499.900696 572.610596,499.503204 
	C588.904297,499.345154 599.870605,506.210693 606.700256,520.668884 
	C609.229248,526.022644 612.199524,531.168030 615.069458,536.599365 
	C619.507446,533.946716 621.498657,530.011169 624.537476,526.057617 
M450.499939,636.708679 
	C515.974731,636.708679 581.449524,636.708679 646.924316,636.708679 
	C647.085083,633.455017 646.203918,632.022461 645.430481,630.555603 
	C627.256531,596.086243 608.970459,561.675293 590.994873,527.102783 
	C586.975220,519.371643 581.433472,516.050598 572.699219,516.101196 
	C532.043457,516.336914 491.384583,516.333252 450.729095,516.066772 
	C443.474182,516.019287 439.477570,519.030151 436.288666,525.146790 
	C418.426300,559.408813 400.328247,593.547913 382.312897,627.730164 
	C380.948395,630.319092 379.601349,632.917297 377.620544,636.708679 
	C402.374481,636.708679 425.937195,636.708679 450.499939,636.708679 
M588.689453,770.500000 
	C588.692749,753.179565 588.644409,735.858765 588.744568,718.538879 
	C588.763794,715.209290 588.233826,713.276794 584.186768,713.284302 
	C536.722595,713.372314 489.258118,713.351196 441.793884,713.271301 
	C438.323547,713.265503 437.134430,714.544006 437.141510,717.965515 
	C437.212952,752.439026 437.138458,786.912842 437.206482,821.386414 
	C437.220734,828.623535 440.429626,831.674072 447.652710,831.679443 
	C490.953583,831.711670 534.254456,831.718628 577.555359,831.693176 
	C585.651306,831.688416 588.675842,828.599976 588.690735,820.463257 
	C588.720642,804.142212 588.692200,787.821106 588.689453,770.500000 
M420.484467,715.288818 
	C419.463531,712.778503 417.215057,713.382568 415.318726,713.369751 
	C405.488312,713.303467 395.657349,713.296448 385.826599,713.314331 
	C376.225189,713.331787 367.909027,709.945740 360.775848,703.681580 
	C358.729492,701.884460 356.585754,700.459229 354.086365,699.457031 
	C348.192932,697.094177 342.604248,694.113647 337.278137,690.681335 
	C292.182129,661.620300 259.308716,622.058289 236.850739,573.580200 
	C232.356735,563.879333 228.760406,553.800903 224.523956,542.401062 
	C224.398804,544.622253 224.330139,545.271851 224.330170,545.921509 
	C224.333115,603.406738 224.304276,660.891968 224.378479,718.377075 
	C224.394531,730.815735 233.431931,739.644043 245.998566,739.688110 
	C267.826050,739.764648 289.653961,739.712646 311.481689,739.718079 
	C345.972595,739.726685 380.463745,739.682922 414.954163,739.819153 
	C419.216797,739.835938 420.995819,738.628662 420.745880,734.140808 
	C420.412781,728.160217 420.631256,722.148926 420.484467,715.288818 
M761.632690,623.090393 
	C750.086548,639.095520 736.988586,653.720398 722.089661,666.653259 
	C706.831482,679.898010 690.943054,692.284363 671.881287,699.790100 
	C668.898438,700.964600 666.328247,702.571594 663.853577,704.645447 
	C657.150330,710.262939 649.459229,713.447144 640.512878,713.338135 
	C630.351379,713.214355 620.185364,713.428345 610.024780,713.272034 
	C606.321777,713.215027 604.969727,714.579468 605.124634,718.256531 
	C605.348755,723.578796 605.376587,728.924683 605.145691,734.245667 
	C604.972839,738.228027 606.184814,739.806030 610.472534,739.796631 
	C666.786133,739.673096 723.100098,739.746521 779.413818,739.678040 
	C792.841370,739.661743 801.648132,730.750122 801.658875,717.319214 
	C801.702148,663.004700 801.683655,608.690186 801.655518,554.375671 
	C801.654663,552.716919 801.999512,550.917542 800.590637,548.641174 
	C790.975342,575.495117 778.314514,599.955261 761.632690,623.090393 
M453.499939,696.664978 
	C483.978943,696.660522 514.457947,696.658325 544.936951,696.651062 
	C575.582031,696.643799 606.227295,696.675598 636.872192,696.601562 
	C650.630188,696.568298 658.089172,691.234619 660.263489,679.650513 
	C661.276428,674.253906 661.172546,668.643799 660.314514,663.234985 
	C659.098877,655.572693 656.031189,653.307251 648.011230,653.299866 
	C614.367798,653.268799 580.724304,653.275391 547.080872,653.274048 
	C489.953522,653.271790 432.826202,653.270020 375.698853,653.279419 
	C369.092834,653.280457 367.203217,654.849060 365.795288,661.284851 
	C364.929413,665.242737 365.386993,669.251526 365.373566,673.233398 
	C365.320740,688.897034 373.029266,696.652344 388.544098,696.658813 
	C409.862701,696.667725 431.181305,696.663696 453.499939,696.664978 
M572.869812,848.799744 
	C569.208374,848.029175 565.564575,848.945374 561.909912,848.915222 
	C523.603577,848.599121 485.293304,849.540344 446.988068,848.440063 
	C431.269653,847.988464 420.778748,837.611023 420.688599,821.936523 
	C420.642578,813.939575 420.710541,805.941833 420.640747,797.945190 
	C420.625824,796.236328 421.310516,794.002991 418.845093,793.314880 
	C416.787933,792.740784 414.864288,793.448059 413.284546,794.830383 
	C411.452301,796.433655 410.739197,798.659973 410.097443,800.931580 
	C405.214020,818.216980 400.285950,835.489746 395.404388,852.775635 
	C392.422760,863.333801 394.978943,866.705994 405.850281,866.706909 
	C454.166748,866.710754 502.483215,866.722595 550.799683,866.725037 
	C574.791260,866.726257 598.783020,866.753113 622.774414,866.684692 
	C630.797607,866.661804 634.011963,862.313110 631.829834,854.754089 
	C626.756836,837.180115 621.705566,819.599609 616.553589,802.048706 
	C615.768372,799.373657 615.098206,796.519287 612.676697,794.652222 
	C610.832886,793.230530 608.704956,792.679688 606.581177,793.584534 
	C604.646851,794.408752 605.245300,796.451477 605.233459,798.032532 
	C605.172302,806.195801 605.352478,814.363525 605.152161,822.522461 
	C604.840942,835.196472 597.906982,844.281921 586.120239,847.656433 
	C582.096375,848.808472 577.891724,848.694397 572.869812,848.799744 
z"/>
<path fill="#000000" opacity="1.000000" stroke="none" 
	d="
M537.962769,248.362732 
	C518.671509,248.364883 499.873749,248.379868 481.076019,248.359970 
	C474.550079,248.353058 470.787292,245.306778 470.792145,240.149689 
	C470.796906,235.097336 474.801270,231.663467 480.969757,231.651627 
	C502.096100,231.611084 523.222656,231.610184 544.348999,231.649429 
	C550.668823,231.661163 554.173157,234.552185 554.305725,239.612793 
	C554.443604,244.874924 550.661804,248.242340 544.444885,248.359299 
	C542.449341,248.396851 540.452515,248.363022 537.962769,248.362732 
z"/>
<path fill="#000000" opacity="1.000000" stroke="none" 
	d="
M538.269775,442.308838 
	C538.370911,456.940979 532.455383,466.354218 520.581787,469.487152 
	C510.884766,472.045776 501.548798,470.803101 494.536377,462.799591 
	C486.942047,454.131927 485.511505,443.970795 490.003876,433.497742 
	C494.128296,423.882629 502.267395,418.920410 512.510986,418.883423 
	C524.526672,418.840057 535.609253,425.712494 538.269775,442.308838 
M521.806213,446.161438 
	C522.153748,441.540253 520.577393,438.024780 516.105713,436.128998 
	C512.573425,434.631470 509.539429,435.607483 506.970886,438.131622 
	C503.904785,441.144684 503.405853,444.943390 504.905823,448.745697 
	C506.311371,452.308685 509.313812,454.136169 513.217041,453.983795 
	C517.771240,453.806030 520.623535,451.410645 521.806213,446.161438 
z"/>
</svg>